<?xml version="1.0" encoding="utf-8"?>
<!-- Generator: Adobe Illustrator 26.0.1, SVG Export Plug-In . SVG Version: 6.00 Build 0)  -->
<svg version="1.1" xmlns="http://www.w3.org/2000/svg" xmlns:xlink="http://www.w3.org/1999/xlink" x="0px" y="0px"
	 viewBox="0 0 792 612" style="enable-background:new 0 0 792 612;" xml:space="preserve">
<style type="text/css">
	.st0{display:none;}
	.st1{display:inline;}
	.st2{fill:#FFFFFF;}
	.st3{fill:none;stroke:#F1F1F2;stroke-width:0.5;stroke-miterlimit:10;}
	.st4{fill:url(#SVGID_1_);}
	.st5{fill:none;stroke:#404041;stroke-width:4;stroke-linecap:round;stroke-linejoin:round;stroke-miterlimit:10;}
	.st6{fill:none;stroke:#58595B;stroke-width:4;stroke-linecap:round;stroke-linejoin:round;stroke-miterlimit:10;}
	.st7{display:none;fill:none;stroke:#58595B;stroke-width:4;stroke-linecap:round;stroke-linejoin:round;stroke-miterlimit:10;}
	.st8{fill:#58595B;stroke:#58595B;stroke-width:3;stroke-linejoin:round;stroke-miterlimit:10;}
	.st9{fill:#6D6E70;stroke:#6D6E70;stroke-width:3;stroke-linejoin:round;stroke-miterlimit:10;}
	.st10{fill:#808184;stroke:#808184;stroke-width:3;stroke-linejoin:round;stroke-miterlimit:10;}
	.st11{fill:none;stroke:#F1F1F2;stroke-width:4;stroke-linecap:round;stroke-linejoin:round;stroke-miterlimit:10;}
	.st12{fill:#929497;stroke:#929497;stroke-width:4;stroke-linecap:round;stroke-linejoin:round;stroke-miterlimit:10;}
	.st13{fill:#231F20;stroke:#231F20;stroke-width:4;stroke-linecap:round;stroke-linejoin:round;stroke-miterlimit:10;}
	.st14{opacity:0.56;fill:none;stroke:#EB008B;stroke-linecap:round;stroke-miterlimit:10;}
	.st15{fill:#1B75BB;stroke:#1B75BB;stroke-miterlimit:10;}
	.st16{fill:#19915D;stroke:#19915D;stroke-miterlimit:10;}
	.st17{fill:#A6A8AB;stroke:#A6A8AB;stroke-width:3;stroke-linejoin:round;stroke-miterlimit:10;}
	.st18{opacity:0.56;}
	.st19{fill:none;stroke:#58257D;stroke-linecap:round;stroke-miterlimit:10;}
	.st20{fill:none;stroke:#58257D;stroke-linecap:round;stroke-miterlimit:10;stroke-dasharray:0.7619,0.254;}
	.st21{fill:#29B473;stroke:#29B473;stroke-miterlimit:10;}
	.st22{fill:#58257D;stroke:#58257D;stroke-width:3;stroke-linejoin:round;stroke-miterlimit:10;}
	.st23{fill:#652D90;stroke:#652D90;stroke-width:3;stroke-miterlimit:10;}
	.st24{fill:#19915D;stroke:#29B473;stroke-miterlimit:10;}
	.st25{fill:#F1F1F2;stroke:#F1F1F2;stroke-width:3;stroke-miterlimit:10;}
	.st26{fill:#231F20;stroke:#231F20;stroke-width:3;stroke-miterlimit:10;}
	.st27{fill:none;stroke:#29B473;stroke-width:3;stroke-miterlimit:10;}
	.st28{fill:#EB008B;stroke:#EB008B;stroke-width:3;stroke-miterlimit:10;}
	.st29{fill:#929497;}
	.st30{fill:#FFFFFF;stroke:#FFFFFF;stroke-width:3;stroke-miterlimit:10;}
	.st31{fill:#929497;stroke:#929497;stroke-width:3;stroke-miterlimit:10;}
	.st32{fill:none;stroke:#FFFFFF;stroke-width:4;stroke-linecap:round;stroke-miterlimit:10;}
	.st33{fill:none;stroke:#FFFFFF;stroke-width:5;stroke-linecap:round;stroke-miterlimit:10;}
</style>
<g id="Layer_3" class="st0">
	<g class="st1">
		<g>
			<g>
				<path class="st2" d="M186.6,85.8c9.2,15.3,12.1,48-13.9,62c-43.9,23.6-63.5-3.5-71.2-3.1c-29.5,1.6-45.8,7.9-58.9-1.7
					c-17.3-12.8-22.5-48.1-21-57c1.8-11.2,17.1-39.2,35.7-48c10.7-5,17.1,0.3,32.1-7.3c10.6-5.3,11.1-9.9,20.1-13.6
					c12.2-5,24-1.8,33.6,1c17.5,5,61-2.8,52.6,43.4C193.9,71.9,179.5,74,186.6,85.8z"/>
				<path class="st3" d="M186.6,85.8c9.2,15.3,12.1,48-13.9,62c-43.9,23.6-63.5-3.5-71.2-3.1c-29.5,1.6-45.8,7.9-58.9-1.7
					c-17.3-12.8-22.5-48.1-21-57c1.8-11.2,17.1-39.2,35.7-48c10.7-5,17.1,0.3,32.1-7.3c10.6-5.3,11.1-9.9,20.1-13.6
					c12.2-5,24-1.8,33.6,1c17.5,5,61-2.8,52.6,43.4C193.9,71.9,179.5,74,186.6,85.8C186.6,85.8,179.5,74,186.6,85.8z"/>
			</g>
			
				<radialGradient id="SVGID_1_" cx="142.6271" cy="107.1288" r="36.3902" fx="178.9792" fy="108.7935" gradientTransform="matrix(0.6806 0 0 0.6992 20.341 13.5347)" gradientUnits="userSpaceOnUse">
				<stop  offset="0" style="stop-color:#F2E911"/>
				<stop  offset="0.5304" style="stop-color:#F2E711"/>
				<stop  offset="0.7214" style="stop-color:#F4E011"/>
				<stop  offset="0.8575" style="stop-color:#F7D511"/>
				<stop  offset="0.9668" style="stop-color:#FBC410"/>
				<stop  offset="1" style="stop-color:#FDBD10"/>
			</radialGradient>
			<ellipse class="st4" cx="117.4" cy="88.4" rx="25.3" ry="24.9"/>
		</g>
		<g>
			<g>
				
					<image style="overflow:visible;" width="17.8" height="36.9" xlink:href="1153E15C.png"  transform="matrix(1 0 0 1 123.0242 70.6887)"/>
			</g>
		</g>
	</g>
</g>
<g id="Layer_1">
	<line class="st5" x1="590.9" y1="433.1" x2="588.7" y2="484.2"/>
	<line class="st6" x1="590.8" y1="433.1" x2="557.3" y2="499.1"/>
	<line class="st6" x1="590.9" y1="433.1" x2="619.3" y2="497.3"/>
	<line class="st7" x1="590.8" y1="433.1" x2="571.2" y2="500.6"/>
	<polygon class="st8" points="520.3,448.7 477.7,462 474.5,450.8 517.2,437.4 	"/>
	<polygon class="st9" points="596.1,431.4 522,454.6 515.5,431.5 589.6,408.3 	"/>
	<polygon class="st10" points="650.3,419.5 597.4,436 588.3,403.6 641.2,387.1 	"/>
	<line class="st11" x1="648.1" y1="411.5" x2="601.1" y2="426.4"/>
	
		<ellipse transform="matrix(0.9644 -0.2644 0.2644 0.9644 -78.2006 196.2889)" class="st12" cx="690.1" cy="388.7" rx="13.7" ry="21.5"/>
	
		<ellipse transform="matrix(0.9644 -0.2644 0.2644 0.9644 -78.8821 195.64)" class="st13" cx="687.4" cy="390.9" rx="11.1" ry="16.2"/>
	<polygon class="st2" points="688.1,398.8 687.9,398.7 687.6,398.8 687.7,398.5 687.5,398.3 687.8,398.3 687.9,398.1 688,398.3 
		688.3,398.3 688.1,398.5 	"/>
	<path class="st14" d="M683.4,399c1.2-4.4,5.7-7,10.1-5.8c3.5,0.9,5.6,4.6,4.6,8.1c-0.8,2.8-3.6,4.5-6.4,3.7c-2.2-0.6-3.6-2.9-3-5.2
		c0.5-1.8,2.3-2.9,4.1-2.4c1.4,0.4,2.3,1.9,1.9,3.3c-0.3,1.1-1.5,1.8-2.6,1.5c-0.9-0.2-1.5-1.2-1.2-2.1c0.2-0.7,1-1.2,1.7-1"/>
	<g>
		<path class="st15" d="M694.7,383.2c0,2.5-1.6,4.5-3.9,5.2c-0.5,0.1-1,0.2-1.6,0.2c-0.9,0-1.8-0.2-2.6-0.7
			c-1.7-0.9-2.8-2.7-2.8-4.8c0-0.8,0.2-1.5,0.5-2.2c0.2-0.5,0.5-1,0.9-1.4c1-1.1,2.5-1.9,4.1-1.9c0.5,0,1,0.1,1.4,0.2
			c1.4,0.4,2.6,1.3,3.3,2.5C694.4,381.3,694.7,382.2,694.7,383.2z"/>
		<path class="st16" d="M693.9,380.5c-0.2,1.1-1.2,2-2.3,2c-1.3,0-2.4-1.1-2.4-2.4c0-1,0.6-1.8,1.4-2.2
			C692,378.4,693.2,379.3,693.9,380.5z"/>
		<path class="st16" d="M690.9,387.7c0,0.2,0,0.5-0.1,0.7c-0.5,0.1-1,0.2-1.6,0.2c-0.9,0-1.8-0.2-2.6-0.7c0-0.1,0-0.2,0-0.3
			c0-1.2,1-2.2,2.2-2.2S690.9,386.5,690.9,387.7z"/>
		<path class="st16" d="M686.1,380.4c0,0.4-0.5,0.8-1.2,0.8c-0.3,0-0.5-0.1-0.7-0.2c0.2-0.5,0.5-1,0.9-1.4
			C685.7,379.7,686.1,380,686.1,380.4z"/>
	</g>
	<polygon class="st2" points="697.4,385.1 697.2,385 696.9,385.1 696.9,384.8 696.8,384.6 697,384.6 697.2,384.4 697.3,384.6 
		697.6,384.7 697.4,384.8 	"/>
	<polygon class="st2" points="682.2,380.8 681.9,380.7 681.7,380.8 681.7,380.5 681.6,380.3 681.8,380.3 682,380.1 682.1,380.3 
		682.4,380.4 682.2,380.6 	"/>
	<polygon class="st2" points="692.8,404.3 692.5,404.2 692.3,404.3 692.3,404 692.1,403.8 692.4,403.8 692.6,403.6 692.7,403.8 
		692.9,403.9 692.7,404.1 	"/>
	<polygon class="st2" points="689.2,394.5 689,394.4 688.7,394.5 688.8,394.3 688.6,394.1 688.9,394 689,393.8 689.1,394 
		689.4,394.1 689.2,394.3 	"/>
	<polygon class="st2" points="693.6,391.5 693.3,391.3 693.1,391.4 693.1,391.2 692.9,391 693.2,390.9 693.3,390.7 693.5,390.9 
		693.7,391 693.5,391.2 	"/>
	<polygon class="st2" points="684,391.5 683.8,391.3 683.5,391.4 683.6,391.2 683.4,391 683.7,390.9 683.8,390.7 683.9,390.9 
		684.2,391 684,391.2 	"/>
	<path class="st17" d="M694.7,410l-44.1,13.8l-12-42.5l44.1-13.8c0,0-5.6,13.8-2.2,23.4C684.5,402.8,694.7,410,694.7,410z"/>
	<g class="st18">
		<g>
			<path class="st19" d="M688.7,382c-0.1,0.1-0.2,0.2-0.3,0.2"/>
			<path class="st20" d="M688.2,382.4c-2,1.2-4.5,0.8-5.9-1.1c-1.2-1.6-0.9-4,0.7-5.4c1.3-1.1,3.1-0.9,4.1,0.4
				c0.8,1,0.6,2.6-0.5,3.4c-0.8,0.7-2,0.5-2.6-0.3c-0.5-0.7-0.4-1.7,0.3-2.2c0.5-0.4,1.3-0.4,1.7,0.2c0.2,0.3,0.2,0.7,0.1,1"/>
			<path class="st19" d="M686,378.6c-0.1,0.1-0.1,0.2-0.2,0.3"/>
		</g>
	</g>
</g>
<g id="Layer_2">
	<g>
		<path class="st21" d="M473.5,292c0,0,3.6-5.9,10.6-9.4c7.1-3.5,15.9-7,22-7.1c6.1-0.1-14.8,14.9-15.1,22.8
			c-0.5,12.1-17.6,17.9-17.6,17.9s2.3-7.6,1.7-13.9C474.6,297.1,473.5,292,473.5,292z"/>
		<ellipse class="st21" cx="455.6" cy="221" rx="8.2" ry="7.8"/>
		<path class="st21" d="M327,343c3,3.6,3.9,8.1,0.7,14c-2.7,4.9-9,8-17.6,1.6c-5.1-1.6-3.2-5.1-3.5-6.2c-0.2-0.7-5.2-2.3-7.9-3.4
			c-3.2-1.3-4.5-3.3-3.9-4.9c0.7-1.6,3.4-2.2,6.8-1.3c2.4,0.6,6.3,1.4,7.3,1.1c0.9-0.3-1.5-2.9-3.3-5.7c-1.4-2.2-2.5-5.1-1.2-6.4
			c4-4,9.7,7.8,10.2,7.7c0,0,4.1,1.9,5.1,1.7c0.6-0.1-0.6-9.6,3.8-9.5C326.5,331.7,327.4,339,327,343z"/>
		<path class="st21" d="M509,386.9c-4.5-1.4-9-0.4-13.1,4.9c-3.4,4.4-3.8,11.4,5.5,16.8c0.3,3.1,0.1,6.5,0.3,7.9
			c0.5,3.5,3.3,4.1,5.1,3.3c3.4-1.5,0.5-10.3,1.6-10.4c0.7-0.1,4.2,3.9,6.3,5.9c2.5,2.4,4.8,2.8,6,1.6c1.2-1.2,0.7-4-1.5-6.8
			c-1.5-2-3.8-5.2-3.9-6.3c-0.1-1,3.3,0.3,6.6,0.8c2.6,0.4,5.7,0.2,6.3-1.4c2.1-5.3-11-5.8-11.1-6.3c0,0-3.3-3-3.6-4
			c-0.1-0.6,9-3.3,7.2-7.2C519.5,382.9,512.4,384.9,509,386.9z"/>
		<path class="st22" d="M332.5,345.5l-8.5,19.9l21.5,13.7l22,13.1c-1,0.1,1-11,2.2-19.2c1.8-11.8,3.8-14.1,3.8-14.1
			s-16.6-3.2-21.3-4.8C347.1,352.4,332.5,345.5,332.5,345.5z"/>
		<path class="st22" d="M495.9,406.6l7.4-20.3l-22.2-12.6l-25.8-11.5c0-1.5,1.9,12,1.1,20.3c-1.2,11.9-1.1,12.8-1.1,12.8
			s15.5,2.4,20.3,3.7C481,400.5,495.9,406.6,495.9,406.6z"/>
		<path class="st23" d="M464.9,408.2c1.1,22.5-6.2,73.1-6.2,73.1l-25.7,3l-8.4-37h-5.4c0-0.9-9.7,37-9.7,37h-23.6
			c0,0-19.1-43.6-19.1-77c0-22.2,6.9-55.1,10.1-54.6c15.8,2.5,61.2,3.8,69.8-3.1C449.3,347.5,463.7,383.7,464.9,408.2z"/>
		<path class="st17" d="M484.2,497c0,5.7-6.5,6.7-6.5,6.7l-44.9-0.4c0,0-3.7-10.4-0.5-14.7c0.7-0.9-6.1-34.2-6.1-34.2l37.4-2
			c0,0-5.9,31.3-4.5,31.5C470.5,485.3,484.2,491.9,484.2,497z"/>
		<polygon class="st10" points="373.7,454.6 385.2,486.8 409.9,486.8 418.1,455 		"/>
		<path class="st17" d="M415.9,494.5c0,3.9-4.6,10.1-4.6,10.1l-26.4,0.6c0,0-5.3-6.6-5.3-10.8c0-8.4,3.4-18.4,17.6-17.9
			C413.6,477.2,415.9,486.1,415.9,494.5z"/>
		<path class="st21" d="M343,292.3c0,0-3.6-5.9-10.6-9.4c-7.1-3.5-15.9-7-22-7.1c-6.1-0.1,14.8,14.9,15.1,22.8
			c0.5,12.1,17.6,17.9,17.6,17.9s-2.3-7.6-1.7-13.9C342,297.5,343,292.3,343,292.3z"/>
		<path class="st24" d="M474.1,293.9c0,0,2.5-4.2,7.5-6.7c5-2.5,11.3-5,15.6-5c4.3,0-10.5,10.6-10.7,16.2
			c-0.3,8.6-12.5,12.7-12.5,12.7s1.7-5.4,1.2-9.9C474.8,297.5,474.1,293.9,474.1,293.9z"/>
		<path class="st24" d="M343.1,295.3c0,0-2.6-4.3-7.7-6.9c-5.1-2.6-11.6-5.1-16-5.2c-4.4,0,10.8,10.8,11,16.6
			c0.3,8.8,12.8,13,12.8,13s-1.7-5.5-1.2-10.1C342.3,299.1,343.1,295.3,343.1,295.3z"/>
		<path class="st21" d="M475,302.1c0.2,49.3-40.9,48.1-57.7,49.4c-16.4-0.1-70.1,6.6-74.9-42.4c-3.9-40.4,38.3-59.1,62.1-59.9
			C427.3,248.4,474.8,261.5,475,302.1z"/>
		<circle class="st25" cx="408.6" cy="296.1" r="16.8"/>
		<circle class="st25" cx="370.2" cy="299" r="14"/>
		<circle class="st25" cx="447.4" cy="296.1" r="14"/>
		<circle class="st26" cx="408.8" cy="296.1" r="8.7"/>
		<circle class="st26" cx="370.2" cy="299" r="7.4"/>
		<circle class="st26" cx="447.4" cy="296.1" r="7.4"/>
		<ellipse class="st21" cx="364.6" cy="218.1" rx="8.2" ry="7.8"/>
		<path class="st27" d="M364.6,225.9c0,16.5,6.9,29.9,15.4,29.9"/>
		<path class="st27" d="M455.7,228.9c0,15.4-7.4,27.9-16.6,27.9"/>
		<circle class="st28" cx="416.8" cy="398.6" r="23.6"/>
		<g>
			<path class="st29" d="M392.7,394.2c-2.4,0.5-4.7,0.9-6.8,2c-0.7,0.3-1.5,0.9-1.6,1.2c0,0,0.1-0.1,0.1-0.3c0.1-0.2,0.1-0.7,0-0.9
				c-0.2-0.6-0.3-0.6-0.3-0.6c5.3,2.6,11.6,3.7,17.5,5c10.5,2.1,21.2,3.9,31.9,4.3c3.1,0,11.8,0.5,13.3-2.4c-0.1,0,0,0.3-0.1,0.3
				c-1.6-0.5-3.6-0.5-5.3-0.7c0,0,0.3-3,0.3-3c2.4,0.3,9.7,2.1,5.3,5.2c-4.3,2.1-9.1,2-13.6,2.2c-14.6,0.1-29-1-43.3-3.9
				c-3.2-0.8-6.5-1.3-9.2-3.5c-3.9-4,2.6-7.3,6-7.9c2-0.5,4.1-0.5,6,0L392.7,394.2L392.7,394.2z"/>
		</g>
		<circle class="st30" cx="415.8" cy="291.3" r="2.7"/>
		<circle class="st30" cx="377.1" cy="293.7" r="2.7"/>
		<circle class="st30" cx="453.9" cy="291.3" r="2.7"/>
		<path class="st17" d="M447.8,358.5c0,0-27,7-36.3,7s-36.3-7-36.3-7c-4.6,0-8.4-3.2-8.4-7v0c0-3.9,3.8-7,8.4-7c0,0,27,7,36.3,7
			s36.3-7,36.3-7c4.6,0,8.4,3.2,8.4,7v0C456.2,355.4,452.4,358.5,447.8,358.5z"/>
		<path class="st31" d="M338.5,344.5c0,0-1.9,10-2.9,13c-1,3-4.9,10.5-4.9,10.5c-0.5,1.5-2.6,2.2-4.6,1.5l0,0
			c-2.1-0.7-3.3-2.5-2.8-4c0,0,3.9-7.5,4.9-10.5s2.9-13,2.9-13c0.5-1.5,2.6-2.2,4.6-1.5h0C337.7,341.3,339,343,338.5,344.5z"/>
		<path class="st31" d="M490.5,405.3c0,0,2.8-9.7,4.1-12.6s5.9-10,5.9-10c0.6-1.4,2.8-1.9,4.8-1h0c2,0.9,3.1,2.8,2.4,4.2
			c0,0-4.6,7.1-5.9,10c-1.3,2.9-4.1,12.6-4.1,12.6c-0.6,1.4-2.8,1.9-4.8,1l0,0C490.9,408.7,489.8,406.8,490.5,405.3z"/>
		<circle class="st30" cx="406.1" cy="486.8" r="2.7"/>
		<line class="st32" x1="433.4" y1="459.5" x2="437.6" y2="481.3"/>
		<path class="st33" d="M428.2,359.3"/>
	</g>
</g>
</svg>
