<?xml version="1.0" encoding="UTF-8" standalone="no"?>
<!DOCTYPE svg PUBLIC "-//W3C//DTD SVG 1.1//EN" "http://www.w3.org/Graphics/SVG/1.1/DTD/svg11.dtd">
<svg width="100%" height="100%" viewBox="0 0 2048 1536" version="1.1" xmlns="http://www.w3.org/2000/svg" xmlns:xlink="http://www.w3.org/1999/xlink" xml:space="preserve" xmlns:serif="http://www.serif.com/" style="fill-rule:evenodd;clip-rule:evenodd;stroke-linejoin:round;stroke-miterlimit:2;">
    <rect x="661.537" y="111.21" width="597.007" height="1271.69" style="fill:rgb(39,11,115);"/>
    <g transform="matrix(1.08887,-0.085821,0.0875293,1.19292,509.179,-211.159)">
        <path d="M190.658,882.84C190.129,879.532 205.61,862.466 206.785,859.997C208.353,856.7 220.522,843.054 223.281,843.194C227.432,843.405 239.013,867.226 239.013,867.226C239.013,867.226 259.893,830.901 266.348,831.46C268.01,831.604 308.156,873.075 308.156,873.075C308.156,873.075 333.863,826.198 342.818,826.556C349.961,826.842 368.191,872.359 368.191,872.359C368.191,872.359 383.37,833.739 390.45,835.572C391.985,835.969 401.634,864.359 401.634,864.359C401.634,864.359 420.883,836.725 424.952,836.176C426.41,835.979 440.902,859.335 440.902,859.335C440.902,859.335 446.111,832.25 453.531,834.004C471.826,838.33 494.365,876.966 494.365,876.966C529.485,918.124 572.85,1091.54 491.427,1120.37C449.237,1135.3 413.413,1102.78 413.413,1102.78C413.413,1102.78 364.008,1123.99 350.648,1124.43C305.902,1125.93 272.473,1099.61 272.473,1099.61C272.473,1099.61 213.253,1134.37 185.591,1118.47C171.988,1110.65 141.751,1062.94 145.896,1008.3C149.67,958.53 190.658,882.84 190.658,882.84Z" style="fill:url(#_Linear1);"/>
    </g>
    <g transform="matrix(1.17214,0,0,1,-170.423,-37.4438)">
        <path d="M940.23,411.532C953.067,411.532 986.096,421.136 986.096,421.136C986.096,421.136 1021.06,411.089 1029.18,413.234C1056.69,420.499 1078.08,440.757 1087.01,457.339C1094.92,472.021 1091.89,483.627 1091.89,483.627L1067.86,469.207C1067.86,469.207 1058.8,489.51 1055.71,494.846C1051.68,501.791 1043.58,486.446 1036.81,484.827C1030.05,483.209 1020.96,499.327 1016.91,494.947C1001.07,477.843 1004.15,464.837 1004.15,464.837C1004.15,464.837 993.534,504.455 982.55,508.216C977.211,510.044 967.945,476.884 957.079,474.774C948.803,473.167 932.876,509.855 920.839,511.829C908.801,513.803 896.198,489.27 896.198,489.27C896.198,489.27 872.827,517.036 865.272,519.735C860.512,521.437 854.937,494.456 854.937,494.456C854.937,494.456 845.929,520.874 841.159,519.709C838.027,518.944 829.032,498.951 825.604,500.329C818.108,503.343 811.996,506.55 823.514,480.505C836.839,450.372 855.453,445.774 872.437,443.057C883.24,441.329 898.32,445.977 898.32,445.977C898.32,445.977 921.31,411.532 940.23,411.532Z" style="fill:rgb(190,76,8);"/>
    </g>
    <g transform="matrix(1,0,0,1,19.8963,-21.4935)">
        <g transform="matrix(1.66419,-0.131166,0.0985044,1.3425,-206.708,-559.403)">
            <path d="M629.088,784.055C693.183,769.477 696.677,914.754 696.677,914.754C695.782,924.773 707.816,974.505 706.926,992.481C706.316,1004.8 707.329,1031.41 709.303,1044.31C714.242,1076.58 721.438,1104.7 724.703,1127.71C729.926,1164.54 724.536,1175.18 724.536,1175.18L700.876,1147.7C700.876,1147.7 700.586,1170.29 680.376,1170.62C670.499,1170.79 662.518,1150.23 662.518,1150.23C662.518,1150.23 646.358,1169.86 639.486,1169.89C629.772,1169.93 626.857,1154.88 626.857,1154.88C626.857,1154.88 622.781,1174.39 605.502,1173.45C603.055,1173.31 592.14,1166.46 592.14,1166.46C592.14,1166.46 577.386,1182.16 573.49,1180.87C565.935,1178.36 564.993,1157.38 564.993,1157.38C564.993,1157.38 555.786,1175.94 552.471,1178.82C536.416,1192.75 511.991,1189.61 511.991,1189.61C511.991,1189.61 507.1,1168.15 516.412,1125.08C519.769,1109.55 537.655,1076.23 545.554,1044.14C546.809,1039.04 552.502,1009.07 550.397,1013.65C548.012,1018.83 539.686,1021.66 535.277,1028.77C533.294,1031.96 526.743,1043.4 522.632,1048.72C516.054,1057.24 511.103,1063.2 507.05,1058.99C502.521,1054.29 512.252,1028.81 519.343,1010.92C524.331,998.332 536.076,983.538 540.516,971.689C546.956,954.5 562.934,939.234 562.891,937.792C560.81,866.785 589.238,793.118 629.088,784.055Z" style="fill:url(#_Radial2);"/>
        </g>
        <g transform="matrix(2.00726,-0.26031,0.313002,2.19584,-1143.9,-1027.76)">
            <path d="M932.513,864.635C949.711,861.269 953.57,866.272 954.447,874.691C954.968,879.691 949.606,886.597 949.693,892.541C949.967,911.225 944.094,929.604 936.049,928.765C934.028,928.554 931.604,908.495 931.604,892.541C931.604,889.035 923.635,879.528 923.193,876.612C921.626,866.259 926.314,865.847 932.513,864.635Z" style="fill:white;fill-opacity:0.5;"/>
        </g>
        <g transform="matrix(0.965816,0,0,0.586501,6.91973,230.814)">
            <ellipse cx="874.244" cy="576.633" rx="10.147" ry="24.184"/>
        </g>
        <g transform="matrix(1.26457,0,0,0.635653,-252.337,201.283)">
            <ellipse cx="920.123" cy="576.633" rx="9.516" ry="24.184"/>
        </g>
        <g transform="matrix(0.98621,-0.165497,0.189817,1.13114,-109.031,59.4151)">
            <g style="filter:url(#_Effect3);">
                <ellipse cx="928.29" cy="615.322" rx="29.1" ry="12.795" style="fill:rgb(248,109,159);fill-opacity:0.31;"/>
            </g>
        </g>
        <g transform="matrix(0.927671,0.0884748,-0.129193,1.35461,133.494,-295.55)">
            <g style="filter:url(#_Effect4);">
                <ellipse cx="847.729" cy="607.073" rx="17.62" ry="8.249" style="fill:rgb(248,109,159);fill-opacity:0.31;"/>
            </g>
        </g>
        <g transform="matrix(1,0,0,1,-3.36519,-2.24521)">
            <ellipse cx="917.462" cy="564.72" rx="2.158" ry="3.102" style="fill:white;"/>
        </g>
        <g transform="matrix(0.841628,0,0,0.985638,82.9298,7.01598)">
            <ellipse cx="917.462" cy="564.72" rx="2.158" ry="3.102" style="fill:white;"/>
        </g>
    </g>
    <g transform="matrix(1,0,0,1,19.8963,-21.4935)">
        <g transform="matrix(-0.999819,0.0190396,-0.0190396,-0.999819,1860.61,712.033)">
            <path d="M948.079,317.826C942.571,309.031 897.209,324.048 897.209,324.048C897.209,324.048 912.426,346.682 915.613,367.887C918.35,386.104 901.487,434.493 901.487,434.493C901.487,434.493 914.205,437.626 918.304,438.227C923.2,438.945 934.323,413.307 935.778,407.489C936.672,403.915 947.791,370.424 951.671,353.934C953.329,346.888 951.504,323.296 948.079,317.826Z"/>
        </g>
        <g transform="matrix(1.17214,0,0,1,-191.679,-23.5653)">
            <path d="M940.23,411.532C953.067,411.532 986.096,421.136 986.096,421.136C986.096,421.136 1021.06,411.089 1029.18,413.234C1081.05,426.932 1109.12,493.992 1109.12,493.992C1109.12,493.992 1081.6,461.712 1073.77,459.096C1066.67,456.725 1065.7,476.221 1062.12,478.301C1058.67,480.298 1052.24,471.574 1052.24,471.574C1052.24,471.574 1043.85,509.406 1039.97,511.865C1037.84,513.219 1024.48,482.264 1018.46,472.064C1015.22,466.588 1003.77,488.884 998.3,487.734C992.826,486.584 985.612,465.164 985.612,465.164C985.612,465.164 970.085,506.367 959.219,504.257C950.943,502.65 925.756,459.645 919.63,460.828C912.002,462.3 912.018,486.497 908.499,489.517C904.98,492.538 900.357,474.781 898.518,478.951C894.282,488.554 887.931,530.137 880.377,532.837C875.616,534.538 854.937,494.456 854.937,494.456C854.937,494.456 838.301,523.136 833.53,521.971C830.398,521.206 828.329,500.459 824.901,501.837C817.404,504.851 802.778,535.042 802.778,535.042C802.778,535.042 811.996,506.55 823.514,480.505C836.839,450.372 855.453,445.774 872.437,443.057C883.24,441.329 898.32,445.977 898.32,445.977C898.32,445.977 921.31,411.532 940.23,411.532Z" style="fill:rgb(244,112,17);"/>
            <clipPath id="_clip5">
                <path d="M940.23,411.532C953.067,411.532 986.096,421.136 986.096,421.136C986.096,421.136 1021.06,411.089 1029.18,413.234C1081.05,426.932 1109.12,493.992 1109.12,493.992C1109.12,493.992 1081.6,461.712 1073.77,459.096C1066.67,456.725 1065.7,476.221 1062.12,478.301C1058.67,480.298 1052.24,471.574 1052.24,471.574C1052.24,471.574 1043.85,509.406 1039.97,511.865C1037.84,513.219 1024.48,482.264 1018.46,472.064C1015.22,466.588 1003.77,488.884 998.3,487.734C992.826,486.584 985.612,465.164 985.612,465.164C985.612,465.164 970.085,506.367 959.219,504.257C950.943,502.65 925.756,459.645 919.63,460.828C912.002,462.3 912.018,486.497 908.499,489.517C904.98,492.538 900.357,474.781 898.518,478.951C894.282,488.554 887.931,530.137 880.377,532.837C875.616,534.538 854.937,494.456 854.937,494.456C854.937,494.456 838.301,523.136 833.53,521.971C830.398,521.206 828.329,500.459 824.901,501.837C817.404,504.851 802.778,535.042 802.778,535.042C802.778,535.042 811.996,506.55 823.514,480.505C836.839,450.372 855.453,445.774 872.437,443.057C883.24,441.329 898.32,445.977 898.32,445.977C898.32,445.977 921.31,411.532 940.23,411.532Z"/>
            </clipPath>
            <g clip-path="url(#_clip5)">
                <g transform="matrix(0.853138,0,0,1,163.528,23.5653)">
                    <path d="M964.17,397.445C963.499,396.285 969.539,414.74 969.539,418.384C969.539,426.133 964.216,439.644 963.447,441.95C963.447,441.95 967.692,426.372 967.904,418.637C968.1,411.489 964.17,397.445 964.17,397.445Z" style="fill:rgb(233,101,11);"/>
                </g>
                <g transform="matrix(0.853138,0,0,1,163.528,23.5653)">
                    <path d="M861.174,422.206C860.557,424.51 860.405,440.369 861.09,442.677C863.856,451.986 872.032,467.028 872.972,466.458C873.157,466.346 864.231,452.734 862.672,441.135C861.666,433.647 861.676,424.111 861.174,422.206Z" style="fill:rgb(233,101,11);"/>
                </g>
            </g>
        </g>
    </g>
    <g transform="matrix(1,0,0,1,19.8963,-14.7846)">
        <g transform="matrix(0.301713,-0.182073,0.667454,1.10604,18.5332,71.0748)">
            <rect x="890.727" y="893.83" width="45.054" height="62.338" style="fill:rgb(255,154,81);"/>
        </g>
        <g transform="matrix(0.352005,0.0165422,-0.0250511,0.533068,635.419,510.682)">
            <path d="M904.12,916.298L894.139,914.863L890.759,952.098L901.309,955.473L904.12,916.298Z" style="fill:rgb(255,154,81);"/>
        </g>
        <g transform="matrix(0.388948,-0.0612174,0.0804213,0.510961,551.753,599.806)">
            <path d="M905.474,916.187L894.139,914.863L890.753,953.349L900.907,955.626L905.474,916.187Z" style="fill:rgb(255,154,81);"/>
        </g>
        <g transform="matrix(0.352005,0.0165422,-0.0250511,0.533068,663.683,556.604)">
            <path d="M899.812,893.457L890.079,896.384L888.592,920.307L899.028,920.129L899.812,893.457Z" style="fill:rgb(255,154,81);"/>
        </g>
        <g transform="matrix(0.301713,-0.182073,0.667454,1.10604,142.725,56.5478)">
            <rect x="890.727" y="893.83" width="45.054" height="62.338" style="fill:rgb(255,154,81);"/>
        </g>
        <g transform="matrix(1.98322,-0.149095,0.15254,1.98298,-995.065,-931.141)">
            <path d="M856.806,957.056C859.539,954.55 866.488,933.579 869.134,931.241C871.077,929.525 874.552,936.819 874.552,936.819C874.552,936.819 879.785,920.874 882.586,923.166C886.625,926.471 904.594,945.648 904.594,945.648C904.594,945.648 915.215,927.903 920.098,927.027C924.98,926.151 927.185,939.429 927.185,939.429C927.185,939.429 937.782,931.343 940.532,932.53C943.282,933.718 949.389,951.931 951.109,953.387C953.59,951.566 955.223,938.098 959.132,934.088C960.675,932.505 965.009,938.372 965.009,938.372C965.009,938.372 970.348,929.055 972.343,929.104C978.36,929.254 985.783,937.702 991.471,945.648C1007.63,968.219 1024,1018.5 1024,1052.54C1024,1098.55 992.616,1110.38 967.627,1110.38C959.028,1110.38 950.986,1105.96 944.133,1098.28C932.713,1105.97 919.424,1110.38 905.249,1110.38C889.722,1110.38 875.259,1105.09 863.142,1095.99C856.091,1105.07 847.576,1110.38 838.411,1110.38C814.106,1110.38 776.852,1095.15 776.852,1049.13C776.852,1020.76 793.013,978.917 810.603,955.042C814.145,950.234 821.434,940.462 824.451,939.043C826.266,938.19 829.791,949.391 829.791,949.391C829.791,949.391 839.78,937.36 842.636,938.194C847.263,939.545 853.269,953.883 856.806,957.056ZM901.723,1072.6L902.734,1065.82L913.325,1067.22L912.465,1073C941.994,1071.87 965.749,1052.52 966.323,1028.34C958.62,1038.13 943.068,1046.29 924.519,1049.08L924.628,1059.09L913.933,1059.2L913.833,1050.05C912.154,1050.11 910.46,1050.12 908.754,1050.08C905.99,1050.03 903.265,1049.85 900.593,1049.55L899.069,1059.79L888.477,1058.38C889.188,1054.16 889.691,1050.71 890.057,1047.78C873.017,1043.87 859.109,1035.48 852.275,1025.93C851.716,1049.49 873.363,1069.4 901.723,1072.6ZM875.771,987.517L889.436,1016.66L862.105,1016.66L875.771,987.517ZM937.794,984.9L951.946,1014.05L923.642,1014.05L937.794,984.9Z" style="fill:rgb(244,112,17);"/>
            <clipPath id="_clip6">
                <path d="M856.806,957.056C859.539,954.55 866.488,933.579 869.134,931.241C871.077,929.525 874.552,936.819 874.552,936.819C874.552,936.819 879.785,920.874 882.586,923.166C886.625,926.471 904.594,945.648 904.594,945.648C904.594,945.648 915.215,927.903 920.098,927.027C924.98,926.151 927.185,939.429 927.185,939.429C927.185,939.429 937.782,931.343 940.532,932.53C943.282,933.718 949.389,951.931 951.109,953.387C953.59,951.566 955.223,938.098 959.132,934.088C960.675,932.505 965.009,938.372 965.009,938.372C965.009,938.372 970.348,929.055 972.343,929.104C978.36,929.254 985.783,937.702 991.471,945.648C1007.63,968.219 1024,1018.5 1024,1052.54C1024,1098.55 992.616,1110.38 967.627,1110.38C959.028,1110.38 950.986,1105.96 944.133,1098.28C932.713,1105.97 919.424,1110.38 905.249,1110.38C889.722,1110.38 875.259,1105.09 863.142,1095.99C856.091,1105.07 847.576,1110.38 838.411,1110.38C814.106,1110.38 776.852,1095.15 776.852,1049.13C776.852,1020.76 793.013,978.917 810.603,955.042C814.145,950.234 821.434,940.462 824.451,939.043C826.266,938.19 829.791,949.391 829.791,949.391C829.791,949.391 839.78,937.36 842.636,938.194C847.263,939.545 853.269,953.883 856.806,957.056ZM901.723,1072.6L902.734,1065.82L913.325,1067.22L912.465,1073C941.994,1071.87 965.749,1052.52 966.323,1028.34C958.62,1038.13 943.068,1046.29 924.519,1049.08L924.628,1059.09L913.933,1059.2L913.833,1050.05C912.154,1050.11 910.46,1050.12 908.754,1050.08C905.99,1050.03 903.265,1049.85 900.593,1049.55L899.069,1059.79L888.477,1058.38C889.188,1054.16 889.691,1050.71 890.057,1047.78C873.017,1043.87 859.109,1035.48 852.275,1025.93C851.716,1049.49 873.363,1069.4 901.723,1072.6ZM875.771,987.517L889.436,1016.66L862.105,1016.66L875.771,987.517ZM937.794,984.9L951.946,1014.05L923.642,1014.05L937.794,984.9Z"/>
            </clipPath>
            <g clip-path="url(#_clip6)">
                <g transform="matrix(0.501332,0.0376938,-0.0385648,0.501391,462.948,504.374)">
                    <path d="M1045,1105.73C1047.18,1107.15 1069.88,994.854 1064.22,937.894C1060.83,903.821 1040.57,815.444 1036.42,816.892C1036.31,816.931 1050.48,870.485 1056.33,937.175C1063.12,1014.69 1042.11,1103.84 1045,1105.73Z" style="fill:rgb(233,101,11);"/>
                </g>
                <g transform="matrix(0.501332,0.0376938,-0.0385648,0.501391,462.948,504.374)">
                    <path d="M884.202,1113.82C850.731,1061.73 836.174,1009.42 834.958,948.619C834.432,922.292 849.108,842.884 851.212,837.625C851.423,837.097 842.411,926.759 839.399,949.483C833.676,992.653 884.202,1113.82 884.202,1113.82Z" style="fill:rgb(233,101,11);"/>
                </g>
            </g>
        </g>
    </g>
    <defs>
        <linearGradient id="_Linear1" x1="0" y1="0" x2="1" y2="0.00431008" gradientUnits="userSpaceOnUse" gradientTransform="matrix(14.4756,-281.921,281.921,14.4756,338.519,1138.62)"><stop offset="0" style="stop-color:rgb(167,49,7);stop-opacity:1"/><stop offset="0.2" style="stop-color:rgb(180,65,8);stop-opacity:1"/><stop offset="0.42" style="stop-color:rgb(194,81,9);stop-opacity:1"/><stop offset="1" style="stop-color:rgb(201,89,9);stop-opacity:1"/></linearGradient>
        <radialGradient id="_Radial2" cx="0" cy="0" r="1" gradientUnits="userSpaceOnUse" gradientTransform="matrix(-13.1843,344.907,-278.197,-18.217,617.465,913.508)"><stop offset="0" style="stop-color:white;stop-opacity:0.490392"/><stop offset="0.6" style="stop-color:white;stop-opacity:0.413843"/><stop offset="0.81" style="stop-color:white;stop-opacity:0.239216"/><stop offset="1" style="stop-color:white;stop-opacity:0.0598039"/></radialGradient>
        <filter id="_Effect3" filterUnits="userSpaceOnUse" x="887.189" y="592.064" width="82.2009" height="46.5156">
            <feGaussianBlur in="SourceGraphic" stdDeviation="1.85876"/>
        </filter>
        <filter id="_Effect4" filterUnits="userSpaceOnUse" x="817.232" y="590.006" width="60.9935" height="34.1345">
            <feGaussianBlur in="SourceGraphic" stdDeviation="1.71497"/>
        </filter>
    </defs>
</svg>
