<?xml version="1.0" encoding="UTF-8" standalone="no"?>
<!DOCTYPE svg PUBLIC "-//W3C//DTD SVG 1.1//EN" "http://www.w3.org/Graphics/SVG/1.1/DTD/svg11.dtd">
<svg width="100%" height="100%" viewBox="0 0 2048 1536" version="1.1" xmlns="http://www.w3.org/2000/svg" xmlns:xlink="http://www.w3.org/1999/xlink" xml:space="preserve" xmlns:serif="http://www.serif.com/" style="fill-rule:evenodd;clip-rule:evenodd;stroke-linecap:round;stroke-linejoin:round;stroke-miterlimit:1.5;">
    <g transform="matrix(0.957614,0,0,0.957614,23.0133,62.2333)">
        <g transform="matrix(0.749552,0,0,0.300209,337.429,1007.12)">
            <path d="M1896.99,1536L274.18,1536L577.987,879.453L1593.18,879.453L1896.99,1536Z"/>
        </g>
        <g transform="matrix(1.29915,0,0,1.0504,-301.749,-100.665)">
            <rect x="815" y="255.211" width="577.83" height="1026.68" style="fill:url(#_Linear1);"/>
        </g>
        <g transform="matrix(0.300649,-0.000180517,0.000152098,0.253318,1002.59,240.515)">
            <path d="M1134.49,268.012C1041.85,268.012 966.639,362.491 966.639,478.864C966.639,595.236 1041.85,689.716 1134.49,689.716C1065.01,672.145 1008.6,583.714 1008.6,478.864C1008.6,374.013 1065.01,285.583 1134.49,268.012Z" style="fill:white;"/>
        </g>
        <g transform="matrix(0.530362,0,1.38778e-17,2.47667,643.121,-626.47)">
            <path d="M1026.76,413.433C1026.76,404.768 1070.74,398.957 1121.46,398.957C1172.18,398.957 1224.19,406.5 1224.19,415.165C1253.23,413.87 1288.77,413.111 1316.3,416.374C1322.38,417.094 1336.65,419.206 1336.65,419.206C1336.65,419.206 1351.63,419.007 1371.91,419.419C1413.68,420.269 1433.83,426.649 1433.83,426.649L957.857,425.86C957.857,425.86 958.646,420.514 976.813,415.888C990.107,412.503 1012.74,413.271 1026.76,413.433Z" style="fill:url(#_Linear2);"/>
        </g>
        <g transform="matrix(0.462565,0.0195238,-0.092186,2.1841,462.758,-639.443)">
            <path d="M1026.76,413.433C1026.76,404.768 1071.95,396.452 1121.46,398.957C1156.44,400.728 1157.68,404.569 1157.68,404.569C1157.68,404.569 1178.09,402.582 1196.52,404.763C1224.43,408.064 1228.44,409.837 1228.44,413.061C1257.48,411.766 1276.84,412.589 1304.36,415.851C1310.44,416.572 1325.66,419.822 1325.66,419.822C1325.66,419.822 1341.42,418.609 1361.69,419.047C1389.71,419.653 1399.85,426.52 1399.85,426.52L832.421,429.545C832.421,429.545 847.17,425.793 857.161,425.208C877.19,424.035 890.393,423.956 890.393,423.956C890.393,423.956 905.198,420.803 915.22,419.664C936.124,417.288 968.971,419.664 968.971,419.664C968.971,419.664 971.764,415.327 985.754,413.704C998.758,412.194 1022.87,413.388 1026.76,413.433Z" style="fill:url(#_Linear3);"/>
        </g>
        <g transform="matrix(0.333861,0,8.73601e-18,1.72344,545.301,-391.698)">
            <path d="M1026.76,413.433C1026.76,404.768 1070.74,398.957 1121.46,398.957C1172.18,398.957 1224.19,406.5 1224.19,415.165C1253.23,413.87 1288.77,413.111 1316.3,416.374C1322.38,417.094 1336.65,419.206 1336.65,419.206C1336.65,419.206 1351.63,419.007 1371.91,419.419C1413.68,420.269 1433.83,426.649 1433.83,426.649L957.857,425.86C957.857,425.86 958.646,420.514 976.813,415.888C990.107,412.503 1012.74,413.271 1026.76,413.433Z" style="fill:url(#_Linear4);"/>
        </g>
        <g transform="matrix(0.44725,0,0,1.84368,841.129,-319.157)">
            <path d="M1024,414.257C1024,405.591 1040.55,397.298 1089.74,398.298C1117.99,398.872 1117.61,404.715 1117.61,404.715C1117.61,404.715 1131.3,401.015 1148.34,401.275C1177.93,401.726 1197.25,406.759 1201.55,413.787C1228.98,412.583 1293.29,414.232 1318.25,418.334C1345.39,422.796 1361.52,429.01 1361.52,429.01L886.2,427.717C886.2,427.717 893.412,423.972 900.603,422.975C907.516,422.017 929.349,421.736 929.349,421.736C929.349,421.736 943.129,416.696 957.223,415.111C983.739,412.129 1005.74,413.148 1024,414.257Z" style="fill:url(#_Linear5);"/>
        </g>
        <g transform="matrix(1.07945,0,0,1.01511,-79.8816,-19.7525)">
            <path d="M1518.21,127.155L737.087,126.28L732.11,1271.03L1514.19,1271.68L1518.21,127.155ZM1109.81,715.901L792.206,715.901L792.206,1202.75L1109.81,1202.75L1109.81,715.901ZM1463.88,715.901L1146.27,715.901L1146.27,1202.75L1463.88,1202.75L1463.88,715.901ZM1109.81,193.968L792.206,193.968L792.206,680.815L1109.81,680.815L1109.81,193.968ZM1463.88,191.748L1146.27,191.748L1146.27,678.594L1463.88,678.594L1463.88,191.748Z" style="fill:white;"/>
        </g>
        <g transform="matrix(1.08011,0,0,1.08011,-36.4518,-164.422)">
            <g transform="matrix(0.964972,0,0,0.906514,396.701,397.435)">
                <path d="M512.154,742.77C534.931,742.77 606.363,720.75 623.185,720.75C706.751,720.75 774.665,852.752 774.665,963.91C774.665,1075.07 706.751,1123.56 623.185,1123.56C606.363,1123.56 586.933,1113.95 571.812,1107.2C551.337,1113.95 531.331,1129.34 508.553,1129.34C488.605,1129.34 468.474,1116.6 450.222,1111.37C436.743,1116.6 424.678,1123.56 409.946,1123.56C326.379,1123.56 259.454,1084.39 259.454,973.229C259.454,862.072 326.379,720.75 409.946,720.75C424.678,720.75 492.205,742.77 512.154,742.77Z" style="fill:rgb(247,119,27);"/>
            </g>
            <g transform="matrix(-0.80632,-0.0216785,0.0163682,-0.608805,1027.91,1496.03)">
                <path d="M198.328,693.645C198.328,693.645 187.968,691.178 178.087,692.203C167.394,693.312 161.002,696.467 161.002,696.467C161.002,696.467 176.851,737.152 152.83,807.309C145.958,827.38 179.234,824.959 179.234,824.959C179.234,824.959 209.008,828.658 209.008,806.619C209.008,766.91 198.328,693.645 198.328,693.645Z"/>
            </g>
        </g>
        <g transform="matrix(1.39686,0,0,1.93842,-1108.25,-936.823)">
            <g transform="matrix(0.856278,0,0,0.267829,247.266,813.244)">
                <path d="M1795.7,1255.68L1641.82,1255.68C1641.82,1255.68 1675.47,1191.96 1683.89,1155.46C1692.31,1118.97 1692.31,1036.7 1692.31,1036.7L1745.21,1036.7C1745.21,1036.7 1746.15,1116.72 1753.63,1150.46C1761.77,1187.18 1795.7,1255.68 1795.7,1255.68Z" style="fill:rgb(144,144,144);"/>
            </g>
            <g transform="matrix(0.464292,0,0,0.553834,920.66,536.506)">
                <rect x="1669.22" y="768" width="100.526" height="268.704" style="fill:rgb(144,144,144);"/>
            </g>
            <g transform="matrix(0.772478,0,0,0.686891,389.035,318.318)">
                <ellipse cx="1721.69" cy="1062.43" rx="42.876" ry="26.168" style="fill:rgb(158,158,158);"/>
            </g>
            <g transform="matrix(6.59195e-17,-1,0.795846,5.89806e-17,1025.84,2696.03)">
                <path d="M1734.18,812.879C1719.74,825.423 1708.01,847.139 1708.01,870.982C1708.01,894.824 1719.74,916.541 1734.18,929.084L1734.18,812.879Z" style="fill:rgb(158,158,158);"/>
            </g>
        </g>
        <g transform="matrix(0.834069,0,0,1,178.376,-56.3568)">
            <g transform="matrix(0.807883,0,0,0.79823,1005.55,158.233)">
                <rect x="353.255" y="729.363" width="110.79" height="305.144" style="fill:rgb(247,246,242);"/>
            </g>
            <g transform="matrix(1.12764,0,0,2.88933,-176.194,-1418.88)">
                <path d="M1301.07,746.849C1301.07,751.686 1318.84,755.608 1340.76,755.608C1362.67,755.608 1380.44,751.686 1380.44,746.849L1340.76,746.849L1301.07,746.849Z" style="fill:rgb(236,232,222);"/>
            </g>
            <g transform="matrix(0.807883,0,0,1.39529,990.537,-290.579)">
                <path d="M371.837,738.182C371.837,738.182 394.434,750.985 422.807,750.985C451.181,750.985 483.274,737.911 483.274,737.911C483.274,737.911 486.522,743.292 486.803,746.129C487.254,750.693 485.984,765.295 485.984,765.295C485.984,765.295 489.937,771.174 489.295,774.457C488.876,776.596 485.953,777.041 485.953,777.041L484.912,794.11C484.912,794.11 492.506,806.748 486.44,808.107C484.398,808.564 482.627,807.194 482.627,807.194L482.627,800.929L480.234,760.114C480.234,760.114 478.346,767.307 474.901,767.872C468.842,768.866 469.018,765.284 466.299,765.294C461.61,765.311 457.594,762.501 457.594,762.501L457.046,799.888C457.046,799.888 457.473,806.897 457.907,813.573C458.269,819.142 457.801,825.473 455.488,825.229C451.23,824.78 453.144,818.188 450.523,818.817C446.377,819.812 450.828,800.669 450.828,800.669L450.743,789.953C450.743,789.953 448.249,793.174 446.662,790.02C446.086,788.876 448.466,776.268 448.466,776.268C448.466,776.268 448.321,763.081 447.626,762.15C447.626,762.15 440.287,768.149 436.792,767.87C434.366,767.676 432.44,764.378 430.566,763.841C426.143,762.574 428.824,795.955 424.455,797.875C416.564,801.345 418.406,765.385 414.992,765.08C412.652,764.871 410.741,769.621 409.036,769.73C405.543,769.952 403.372,765.847 403.372,765.847C403.372,765.847 393.428,792.055 394.703,804.715C395.469,812.323 396.289,822.887 388.582,821.982C381.382,821.136 383.381,813.222 388.673,804.905C395.752,793.781 392.705,768.101 391.48,761.403C391.037,758.977 389.687,766.88 385.697,766.367C379.9,765.621 382.823,761.747 379.784,762.172C371.212,763.372 372.949,755.149 372.844,758.679C372.554,768.429 371.837,809.458 371.837,809.458C371.837,809.458 368.208,811.594 366.698,803.244C366.11,799.987 370.184,794.825 369.571,791.408C366.995,777.054 366.84,757.153 368.364,746.195C369.058,741.208 371.837,738.182 371.837,738.182Z" style="fill:white;stroke:rgb(254,254,253);stroke-width:0.91px;"/>
            </g>
            <path d="M1336.31,728.146C1336.31,727.62 1335.8,727.192 1335.17,727.192L1332.88,727.192C1332.25,727.192 1331.74,727.62 1331.74,728.146L1331.74,749.717C1331.74,750.243 1332.25,750.67 1332.88,750.67L1335.17,750.67C1335.8,750.67 1336.31,750.243 1336.31,749.717L1336.31,728.146Z"/>
            <g transform="matrix(1.3663,0,0,1.09324,-488.821,-60.8849)">
                <g style="filter:url(#_Effect6);">
                    <path d="M1334.15,681.733C1334.15,681.733 1326.09,707.671 1326.09,718.788C1326.09,723.427 1329.7,727.192 1334.15,727.192C1338.6,727.192 1342.21,723.427 1342.21,718.788C1342.21,707.671 1334.15,681.733 1334.15,681.733Z" style="fill:rgb(247,119,27);"/>
                </g>
            </g>
        </g>
        <g transform="matrix(0.834069,0,0,1,311.749,371.531)">
            <g transform="matrix(0.807883,0,0,0.79823,1005.55,158.233)">
                <rect x="353.255" y="729.363" width="110.79" height="305.144" style="fill:rgb(247,246,242);"/>
            </g>
            <g transform="matrix(1.12764,0,0,2.88933,-176.194,-1418.88)">
                <path d="M1301.07,746.849C1301.07,751.686 1318.84,755.608 1340.76,755.608C1362.67,755.608 1380.44,751.686 1380.44,746.849L1340.76,746.849L1301.07,746.849Z" style="fill:rgb(236,232,222);"/>
            </g>
            <g transform="matrix(0.807883,0,0,1.39529,990.537,-290.579)">
                <path d="M371.837,738.182C371.837,738.182 394.434,750.985 422.807,750.985C451.181,750.985 483.274,737.911 483.274,737.911C483.274,737.911 486.522,743.292 486.803,746.129C487.254,750.693 485.984,765.295 485.984,765.295C485.984,765.295 489.937,771.174 489.295,774.457C488.876,776.596 485.953,777.041 485.953,777.041L484.912,794.11C484.912,794.11 492.506,806.748 486.44,808.107C484.398,808.564 482.627,807.194 482.627,807.194L482.627,800.929L480.234,760.114C480.234,760.114 478.346,767.307 474.901,767.872C468.842,768.866 469.018,765.284 466.299,765.294C461.61,765.311 457.594,762.501 457.594,762.501L457.046,799.888C457.046,799.888 457.473,806.897 457.907,813.573C458.269,819.142 457.801,825.473 455.488,825.229C451.23,824.78 453.144,818.188 450.523,818.817C446.377,819.812 450.828,800.669 450.828,800.669L450.743,789.953C450.743,789.953 448.249,793.174 446.662,790.02C446.086,788.876 448.466,776.268 448.466,776.268C448.466,776.268 448.321,763.081 447.626,762.15C447.626,762.15 440.287,768.149 436.792,767.87C434.366,767.676 432.44,764.378 430.566,763.841C426.143,762.574 428.824,795.955 424.455,797.875C416.564,801.345 418.406,765.385 414.992,765.08C412.652,764.871 410.741,769.621 409.036,769.73C405.543,769.952 403.372,765.847 403.372,765.847C403.372,765.847 393.428,792.055 394.703,804.715C395.469,812.323 396.289,822.887 388.582,821.982C381.382,821.136 383.381,813.222 388.673,804.905C395.752,793.781 392.705,768.101 391.48,761.403C391.037,758.977 389.687,766.88 385.697,766.367C379.9,765.621 382.823,761.747 379.784,762.172C371.212,763.372 372.949,755.149 372.844,758.679C372.554,768.429 371.837,809.458 371.837,809.458C371.837,809.458 368.208,811.594 366.698,803.244C366.11,799.987 370.184,794.825 369.571,791.408C366.995,777.054 366.84,757.153 368.364,746.195C369.058,741.208 371.837,738.182 371.837,738.182Z" style="fill:white;stroke:rgb(254,254,253);stroke-width:0.91px;"/>
            </g>
            <path d="M1336.31,728.146C1336.31,727.62 1335.8,727.192 1335.17,727.192L1332.88,727.192C1332.25,727.192 1331.74,727.62 1331.74,728.146L1331.74,749.717C1331.74,750.243 1332.25,750.67 1332.88,750.67L1335.17,750.67C1335.8,750.67 1336.31,750.243 1336.31,749.717L1336.31,728.146Z"/>
            <g transform="matrix(1.3663,0,0,1.09324,-488.821,-60.8849)">
                <g style="filter:url(#_Effect7);">
                    <path d="M1334.15,681.733C1334.15,681.733 1326.09,707.671 1326.09,718.788C1326.09,723.427 1329.7,727.192 1334.15,727.192C1338.6,727.192 1342.21,723.427 1342.21,718.788C1342.21,707.671 1334.15,681.733 1334.15,681.733Z" style="fill:rgb(247,119,27);"/>
                </g>
            </g>
        </g>
        <g transform="matrix(0.665886,0,0,0.665886,420.933,771.016)">
            <g transform="matrix(0.807883,0,0,0.79823,1005.55,158.233)">
                <rect x="353.255" y="729.363" width="110.79" height="305.144" style="fill:rgb(247,246,242);"/>
            </g>
            <g transform="matrix(1.12764,0,0,2.88933,-176.194,-1418.88)">
                <path d="M1301.07,746.849C1301.07,751.686 1318.84,755.608 1340.76,755.608C1362.67,755.608 1380.44,751.686 1380.44,746.849L1340.76,746.849L1301.07,746.849Z" style="fill:rgb(236,232,222);"/>
            </g>
            <g transform="matrix(0.807883,0,0,1.39529,990.537,-290.579)">
                <path d="M371.837,738.182C371.837,738.182 394.434,750.985 422.807,750.985C451.181,750.985 483.274,737.911 483.274,737.911C483.274,737.911 486.522,743.292 486.803,746.129C487.254,750.693 485.984,765.295 485.984,765.295C485.984,765.295 489.937,771.174 489.295,774.457C488.876,776.596 485.953,777.041 485.953,777.041L484.912,794.11C484.912,794.11 492.506,806.748 486.44,808.107C484.398,808.564 482.627,807.194 482.627,807.194L482.627,800.929L480.234,760.114C480.234,760.114 478.346,767.307 474.901,767.872C468.842,768.866 469.018,765.284 466.299,765.294C461.61,765.311 457.594,762.501 457.594,762.501L457.046,799.888C457.046,799.888 457.473,806.897 457.907,813.573C458.269,819.142 457.801,825.473 455.488,825.229C451.23,824.78 453.144,818.188 450.523,818.817C446.377,819.812 450.828,800.669 450.828,800.669L450.743,789.953C450.743,789.953 448.249,793.174 446.662,790.02C446.086,788.876 448.466,776.268 448.466,776.268C448.466,776.268 448.321,763.081 447.626,762.15C447.626,762.15 440.287,768.149 436.792,767.87C434.366,767.676 432.44,764.378 430.566,763.841C426.143,762.574 428.824,795.955 424.455,797.875C416.564,801.345 418.406,765.385 414.992,765.08C412.652,764.871 410.741,769.621 409.036,769.73C405.543,769.952 403.372,765.847 403.372,765.847C403.372,765.847 393.428,792.055 394.703,804.715C395.469,812.323 396.289,822.887 388.582,821.982C381.382,821.136 383.381,813.222 388.673,804.905C395.752,793.781 392.705,768.101 391.48,761.403C391.037,758.977 389.687,766.88 385.697,766.367C379.9,765.621 382.823,761.747 379.784,762.172C371.212,763.372 372.949,755.149 372.844,758.679C372.554,768.429 371.837,809.458 371.837,809.458C371.837,809.458 368.208,811.594 366.698,803.244C366.11,799.987 370.184,794.825 369.571,791.408C366.995,777.054 366.84,757.153 368.364,746.195C369.058,741.208 371.837,738.182 371.837,738.182Z" style="fill:white;"/>
            </g>
            <path d="M1336.31,728.336C1336.31,727.705 1335.8,727.192 1335.17,727.192L1332.88,727.192C1332.25,727.192 1331.74,727.705 1331.74,728.336L1331.74,749.527C1331.74,750.158 1332.25,750.67 1332.88,750.67L1335.17,750.67C1335.8,750.67 1336.31,750.158 1336.31,749.527L1336.31,728.336Z"/>
            <g transform="matrix(1.3663,0,0,1.09324,-488.821,-60.8849)">
                <g style="filter:url(#_Effect8);">
                    <path d="M1334.15,681.733C1334.15,681.733 1326.09,706.501 1326.09,717.116C1326.09,722.677 1329.7,727.192 1334.15,727.192C1338.6,727.192 1342.21,722.677 1342.21,717.116C1342.21,706.501 1334.15,681.733 1334.15,681.733Z" style="fill:rgb(247,119,27);"/>
                </g>
            </g>
        </g>
        <path d="M579.521,1365.42C579.933,1365.89 579.469,1365.66 578.563,1365.97" style="fill:none;stroke:rgb(128,128,128);stroke-width:1px;"/>
        <path d="M861.591,1352.67C859.776,1360.2 841.345,1179.73 841.45,1156.45C841.664,1108.81 884.613,996.361 894.072,986.903C894.072,986.903 855.912,1109.85 853.598,1153.98C850.948,1204.54 861.591,1352.67 861.591,1352.67Z" style="fill:rgb(231,101,8);"/>
        <path d="M962.924,986.903C962.924,986.903 1003.95,1080.01 1012.3,1140.2C1021.13,1203.83 988.185,1348.53 988.185,1348.53C988.185,1348.53 1004.41,1206.31 1000.2,1146.04C996.369,1091.17 962.924,986.903 962.924,986.903Z" style="fill:rgb(231,101,8);"/>
    </g>
    <defs>
        <linearGradient id="_Linear1" x1="0" y1="0" x2="1" y2="0" gradientUnits="userSpaceOnUse" gradientTransform="matrix(-1.5363e-13,1026.69,-955.335,-1.65104e-13,1103.91,255.211)"><stop offset="0" style="stop-color:rgb(130,16,247);stop-opacity:1"/><stop offset="0.56" style="stop-color:rgb(52,7,138);stop-opacity:1"/><stop offset="1" style="stop-color:rgb(19,3,91);stop-opacity:1"/></linearGradient>
        <linearGradient id="_Linear2" x1="0" y1="0" x2="1" y2="0" gradientUnits="userSpaceOnUse" gradientTransform="matrix(0.821562,34.6757,-161.928,0.175932,1137.97,398.957)"><stop offset="0" style="stop-color:rgb(254,254,253);stop-opacity:1"/><stop offset="0.55" style="stop-color:rgb(250,249,246);stop-opacity:1"/><stop offset="1" style="stop-color:rgb(236,232,222);stop-opacity:1"/></linearGradient>
        <linearGradient id="_Linear3" x1="0" y1="0" x2="1" y2="-0.000113505" gradientUnits="userSpaceOnUse" gradientTransform="matrix(0.821562,34.6757,-161.928,0.175932,1137.97,398.957)"><stop offset="0" style="stop-color:rgb(254,254,253);stop-opacity:1"/><stop offset="0.55" style="stop-color:rgb(250,249,246);stop-opacity:1"/><stop offset="1" style="stop-color:rgb(236,232,222);stop-opacity:1"/></linearGradient>
        <linearGradient id="_Linear4" x1="0" y1="0" x2="1" y2="-0.00112627" gradientUnits="userSpaceOnUse" gradientTransform="matrix(0.821562,34.6757,-161.928,0.175932,1137.97,398.957)"><stop offset="0" style="stop-color:rgb(254,254,253);stop-opacity:1"/><stop offset="0.55" style="stop-color:rgb(250,249,246);stop-opacity:1"/><stop offset="1" style="stop-color:rgb(236,232,222);stop-opacity:1"/></linearGradient>
        <linearGradient id="_Linear5" x1="0" y1="0" x2="1" y2="0" gradientUnits="userSpaceOnUse" gradientTransform="matrix(1.19433e-14,47.3159,-195.049,2.89726e-15,1123.86,404.601)"><stop offset="0" style="stop-color:rgb(254,254,253);stop-opacity:1"/><stop offset="0.49" style="stop-color:rgb(249,248,245);stop-opacity:1"/><stop offset="1" style="stop-color:rgb(236,232,222);stop-opacity:1"/></linearGradient>
        <filter id="_Effect6" filterUnits="userSpaceOnUse" x="1320.73" y="676.145" width="26.847" height="56.6359">
            <feGaussianBlur in="SourceGraphic" stdDeviation="0.911817"/>
        </filter>
        <filter id="_Effect7" filterUnits="userSpaceOnUse" x="1320.73" y="676.145" width="26.847" height="56.6359">
            <feGaussianBlur in="SourceGraphic" stdDeviation="0.911817"/>
        </filter>
        <filter id="_Effect8" filterUnits="userSpaceOnUse" x="1321.13" y="675.541" width="26.0343" height="57.8437">
            <feGaussianBlur in="SourceGraphic" stdDeviation="0.911817"/>
        </filter>
    </defs>
</svg>
