<?xml version="1.0" encoding="UTF-8" standalone="no"?>
<!DOCTYPE svg PUBLIC "-//W3C//DTD SVG 1.1//EN" "http://www.w3.org/Graphics/SVG/1.1/DTD/svg11.dtd">
<svg width="100%" height="100%" viewBox="0 0 1584 2448" version="1.1" xmlns="http://www.w3.org/2000/svg" xmlns:xlink="http://www.w3.org/1999/xlink" xml:space="preserve" xmlns:serif="http://www.serif.com/" style="fill-rule:evenodd;clip-rule:evenodd;stroke-linejoin:round;stroke-miterlimit:2;">
    <g transform="matrix(0.99401,0.109293,-0.101294,0.921256,250.992,-6.44119)">
        <path d="M551.546,643.713L509.8,643.713L516.539,2071.95L507.819,2101.01L542.533,2105.83L564.258,2097.59L551.546,2058.09L551.546,643.713Z"/>
    </g>
    <g transform="matrix(0.999758,0.021986,-0.0191549,0.871021,430.464,80.4867)">
        <path d="M551.546,643.713L509.8,643.713L510.999,2041.06L506.643,2056.09L536.488,2065.08L558.227,2055.35L552.087,2038.35L552.063,2012.99L551.202,688.526L552.134,673.798L629.418,628.191L551.546,643.713Z"/>
    </g>
    <g transform="matrix(0.963985,-0.265955,0.265955,0.963985,350.504,170.075)">
        <path d="M551.546,643.713L509.8,643.713L521.938,2065.49L513.609,2077.8L530.44,2106.12L557.124,2102.73L550.424,2072.84L549.756,2066.64L551.546,643.713Z"/>
    </g>
    <g transform="matrix(1.07997,0,0,0.475862,-40.102,319.47)">
        <path d="M1003.03,609.516L678.427,622.843L670.614,702.041L693.973,737.727L720.097,735.478L735.318,766.384L770.486,739.698L886.999,736.371L979.966,726.61L1016.98,721.922L1003.03,609.516Z"/>
    </g>
    <g transform="matrix(1.12697,-0.159123,0.0708464,0.501761,-189.496,713.228)">
        <rect x="865.617" y="1047.96" width="260.916" height="71.632"/>
    </g>
    <g transform="matrix(0.976631,-0.0215172,0.0111618,0.506615,-169.556,351.986)">
        <rect x="865.617" y="1047.96" width="260.916" height="71.632"/>
    </g>
    <g transform="matrix(0.996803,-0.00136173,0.00069225,0.506737,-180.903,530.006)">
        <rect x="865.617" y="1047.96" width="260.916" height="71.632"/>
    </g>
    <g transform="matrix(1.08274,-0.0167773,0.00785108,0.506677,-301.261,770.512)">
        <rect x="865.617" y="1047.96" width="260.916" height="71.632"/>
    </g>
    <g transform="matrix(1.20049,-0.0898962,0.0378402,0.505323,-462.689,1048.98)">
        <rect x="865.617" y="1047.96" width="260.916" height="71.632"/>
    </g>
    <g transform="matrix(1.25547,-0.117027,0.0470311,0.50455,-536.274,1294.37)">
        <rect x="865.617" y="1047.96" width="260.916" height="71.632"/>
    </g>
    <g transform="matrix(1.16758,-0.164858,0.0708464,0.501761,-179.653,947.468)">
        <rect x="865.617" y="1047.96" width="260.916" height="71.632"/>
    </g>
    <g transform="matrix(1.26933,-0.179223,0.0708464,0.501761,-229.284,1188.96)">
        <rect x="865.617" y="1047.96" width="260.916" height="71.632"/>
    </g>
    <g transform="matrix(1.35991,-0.192014,0.0708464,0.501761,-271.965,1447.87)">
        <rect x="865.617" y="1047.96" width="260.916" height="71.632"/>
    </g>
    <g transform="matrix(1.00826,-0.0756855,0.0379319,0.505316,-91.1032,407.349)">
        <rect x="865.617" y="1047.96" width="260.916" height="71.632"/>
    </g>
    <g transform="matrix(0.128078,0.0559535,-0.473659,1.08421,1799.33,-191.343)">
        <rect x="1014.42" y="1797.72" width="108.321" height="136.391"/>
    </g>
    <g transform="matrix(0.166099,-0.0935642,0.403731,0.716722,-40.0099,540.693)">
        <rect x="1014.42" y="1797.72" width="108.321" height="136.391"/>
    </g>
    <g transform="matrix(0.108202,-0.0884702,0.495387,0.605875,293.066,792.541)">
        <rect x="1014.42" y="1797.72" width="108.321" height="136.391"/>
    </g>
    <g transform="matrix(0.100145,0.0974966,-0.494676,0.508114,1432.14,725.484)">
        <rect x="1014.42" y="1797.72" width="108.321" height="136.391"/>
    </g>
    <g transform="matrix(0.981389,-0.192032,0.194238,0.992662,119.716,115.682)">
        <path d="M551.546,643.713L509.8,643.713L509.8,2078.82L501.027,2093.55L521.573,2118.6L557.151,2117.24L551.546,2087.14L551.546,643.713Z"/>
    </g>
    <g transform="matrix(1.21011,0.288783,-0.169991,0.712327,557.241,455.1)">
        <rect x="220.796" y="1014.56" width="239.981" height="18.858"/>
    </g>
    <g transform="matrix(1.09598,0.132847,-0.088123,0.727008,778.12,463.085)">
        <rect x="220.796" y="1014.56" width="239.981" height="18.858"/>
    </g>
</svg>
