<?xml version="1.0" encoding="utf-8"?>
<!-- Generator: Adobe Illustrator 26.0.1, SVG Export Plug-In . SVG Version: 6.00 Build 0)  -->
<svg version="1.1" id="Layer_1" xmlns="http://www.w3.org/2000/svg" xmlns:xlink="http://www.w3.org/1999/xlink" x="0px" y="0px"
	 viewBox="0 0 595.3 841.9" style="enable-background:new 0 0 595.3 841.9;" xml:space="preserve">
<style type="text/css">
	.st0{fill:url(#SVGID_1_);stroke:#2B388F;stroke-miterlimit:10;}
	.st1{fill:url(#SVGID_00000158709326942532495210000006144372893120700590_);}
	.st2{fill:#393939;stroke:#221F1F;stroke-miterlimit:10;}
	.st3{opacity:0.68;clip-path:url(#SVGID_00000085945638799430020310000017036033770956255419_);}
	.st4{fill:url(#SVGID_00000109743310028294728780000016385387516717788817_);}
	.st5{fill:url(#SVGID_00000114073826240215192030000010793162874091007142_);}
	.st6{fill:url(#SVGID_00000024710868348910109300000009175971752858978734_);}
	.st7{fill:url(#SVGID_00000180348613473169242570000010530733454947458453_);}
	.st8{fill:#40433E;stroke:#221F1F;stroke-miterlimit:10;}
	.st9{opacity:0.79;}
</style>
<radialGradient id="SVGID_1_" cx="287.9456" cy="350.557" r="222.2496" fx="406.4436" fy="362.0341" gradientTransform="matrix(-3.055159e-02 -1.1789 0.6337 -1.521801e-02 102.4089 776.3728)" gradientUnits="userSpaceOnUse">
	<stop  offset="4.376195e-02" style="stop-color:#00ADEE"/>
	<stop  offset="0.2103" style="stop-color:#0C95D8"/>
	<stop  offset="0.3992" style="stop-color:#1B75BB"/>
	<stop  offset="0.7849" style="stop-color:#2E3191"/>
	<stop  offset="1" style="stop-color:#262261"/>
</radialGradient>
<polygon class="st0" points="471.2,510.1 471.2,529.9 314.6,581.4 158.4,529.9 158.4,510.1 252.8,21 376.8,21 426,276.2 
	443.5,366.6 446.9,384.2 448.4,392.1 449.8,399.2 450.7,404 "/>
<linearGradient id="SVGID_00000046308215369778521650000017477275482426620831_" gradientUnits="userSpaceOnUse" x1="292.9151" y1="562.6346" x2="292.9151" y2="497.1569">
	<stop  offset="1.117307e-02" style="stop-color:#EC297B"/>
	<stop  offset="0.266" style="stop-color:#D91C5C"/>
	<stop  offset="0.3823" style="stop-color:#C1206D"/>
	<stop  offset="0.5754" style="stop-color:#90278E"/>
	<stop  offset="0.8504" style="stop-color:#652D90"/>
	<stop  offset="1" style="stop-color:#2B388F"/>
</linearGradient>
<path style="fill:url(#SVGID_00000046308215369778521650000017477275482426620831_);" d="M292.9,497.2
	c-59.7,0-108.1,29.3-108.1,65.5H401C401,526.5,352.6,497.2,292.9,497.2z"/>
<path class="st2" d="M460.8,756.4c0,0-10.9,13.2-41,24.8c-23.6,9.1-59.1,17.2-110.4,17.2c-118.1,0-139.5-42.1-139.5-42.1l87.6-76.6
	l0.3-0.2h115.3L460.8,756.4z"/>
<g>
	<defs>
		<path id="SVGID_00000174559776259319405880000012671072528971488667_" d="M460.8,756.4c0,0-10.9,13.2-41,24.8
			c-23.6,9.1-59.1,17.2-110.4,17.2c-118.1,0-139.5-42.1-139.5-42.1l87.6-76.6l0.3-0.2h115.3L460.8,756.4z"/>
	</defs>
	<clipPath id="SVGID_00000159457972598183553960000010214878083215243191_">
		<use xlink:href="#SVGID_00000174559776259319405880000012671072528971488667_"  style="overflow:visible;"/>
	</clipPath>
	<g style="opacity:0.68;clip-path:url(#SVGID_00000159457972598183553960000010214878083215243191_);">
		
			<image style="overflow:visible;" width="925" height="863" xlink:href="857C8883.png"  transform="matrix(0.24 0 0 0.24 292.08 637.2)">
		</image>
	</g>
</g>
<g>
	
		<linearGradient id="SVGID_00000177457998445029093520000005778535558863426957_" gradientUnits="userSpaceOnUse" x1="373.6304" y1="420.4351" x2="373.6304" y2="313.1712">
		<stop  offset="1.117307e-02" style="stop-color:#EC297B"/>
		<stop  offset="0.266" style="stop-color:#D91C5C"/>
		<stop  offset="0.3823" style="stop-color:#C1206D"/>
		<stop  offset="0.5754" style="stop-color:#90278E"/>
		<stop  offset="0.8504" style="stop-color:#652D90"/>
		<stop  offset="1" style="stop-color:#2B388F"/>
	</linearGradient>
	<path style="fill:url(#SVGID_00000177457998445029093520000005778535558863426957_);" d="M422.7,352.1
		c18.3,28.4-15.2,64.4-37.1,68.1c-12,1.4-25.7-2.3-38.8-12.3c-12.8-9.8-25.1-25.9-27.1-43.6c-4.6-36.7,22.9-56.6,56.6-49.6
		C409.8,319.5,407.2,329.1,422.7,352.1z"/>
</g>
<linearGradient id="SVGID_00000173132902663899913210000007067942357022232736_" gradientUnits="userSpaceOnUse" x1="227.129" y1="164.3794" x2="229.0384" y2="209.2342" gradientTransform="matrix(-0.9991 -4.253019e-02 4.253019e-02 -0.9991 501.5337 646.2845)">
	<stop  offset="1.117307e-02" style="stop-color:#EC297B"/>
	<stop  offset="0.266" style="stop-color:#D91C5C"/>
	<stop  offset="0.3823" style="stop-color:#C1206D"/>
	<stop  offset="0.5754" style="stop-color:#90278E"/>
	<stop  offset="0.8504" style="stop-color:#652D90"/>
	<stop  offset="1" style="stop-color:#2B388F"/>
</linearGradient>
<path style="fill:url(#SVGID_00000173132902663899913210000007067942357022232736_);" d="M255.7,446.9c-3.7-7.7,21.9-19.7,29.1-19.4
	c14.4,0.6,23.6,8.1,23,21.5c-0.6,13.5-12.7,23.9-27.1,23.3C266.3,471.8,261.7,459.2,255.7,446.9z"/>
<g>
	
		<linearGradient id="SVGID_00000096017142246272758180000006207752991125876911_" gradientUnits="userSpaceOnUse" x1="232.0069" y1="468.7076" x2="232.0069" y2="380.9134">
		<stop  offset="1.117307e-02" style="stop-color:#EC297B"/>
		<stop  offset="0.266" style="stop-color:#D91C5C"/>
		<stop  offset="0.3823" style="stop-color:#C1206D"/>
		<stop  offset="0.5754" style="stop-color:#90278E"/>
		<stop  offset="0.8504" style="stop-color:#652D90"/>
		<stop  offset="1" style="stop-color:#2B388F"/>
	</linearGradient>
	<path style="fill:url(#SVGID_00000096017142246272758180000006207752991125876911_);" d="M282.5,425.2c-5.3,21.4-29.3,39.5-50,43
		c-20.6,4-45.5-13.7-50.9-44.1c-4.6-30.6,20.3-47.7,50.9-42.1C263.1,386.8,287.2,403.7,282.5,425.2z"/>
</g>
<linearGradient id="SVGID_00000127723376723909195250000000997590215378528693_" gradientUnits="userSpaceOnUse" x1="326.0583" y1="264.0389" x2="326.0583" y2="96.7274">
	<stop  offset="1.117307e-02" style="stop-color:#EC297B"/>
	<stop  offset="0.266" style="stop-color:#D91C5C"/>
	<stop  offset="0.3823" style="stop-color:#C1206D"/>
	<stop  offset="0.5754" style="stop-color:#90278E"/>
	<stop  offset="0.8504" style="stop-color:#652D90"/>
	<stop  offset="1" style="stop-color:#2B388F"/>
</linearGradient>
<path style="fill:url(#SVGID_00000127723376723909195250000000997590215378528693_);" d="M390.9,96.7c0,4-1.1,35.4-28.3,58.5
	c-19.6,16.6,4,43.9,3.6,65.3c-0.4,25-18.9,43.6-40.7,43.6c-21.7,0-39.4-20.3-39.4-45.3c0-18.1,12.7-30.4,22.7-41
	c4.3-4.6,16.2-10.3,7.9-19.4c-2.1-2.3-13.2-11.4-20.4-15.6c-16.6-9.7-27.3-18.1-32.7-33.1c-1.5-4.1-2.3-8.4-2.3-12.8H390.9z"/>
<path class="st8" d="M471.2,529.9l-79,127.5l-3.7,6l-12,19.4c0,0-2,0.9-5.4,2.1c-5.1,2-13.3,4.9-22.6,7.5c-1.6,0.4-3.2,0.9-4.9,1.3
	c-0.2,0.1-0.4,0.1-0.7,0.2c-7.7,1.9-15.7,3.3-23.2,3.7c-1.1,0-2.1,0.1-3.2,0.1c-0.3,0-0.6,0-0.8,0c-0.2,0-0.3,0-0.5,0
	c-4.6-0.1-9.2-0.4-13.8-1c-5.4-0.7-10.7-1.7-15.7-2.9c-2.2-0.5-4.4-1.1-6.5-1.6c-2.2-0.6-4.3-1.2-6.3-1.8
	c-8.6-2.6-15.4-5.2-18.7-6.6c-1.4-0.6-2.2-0.9-2.2-0.9l-94.7-152.9c0,0,0.5,0.2,1.6,0.5c7.1,2.1,37.2,10.9,72.1,17.9
	c6.6,1.3,13.4,2.6,20.2,3.7c3.7,0.6,7.4,1.2,11.1,1.7c6.1,0.9,12.2,1.6,18.3,2.2c0.4,0,0.8,0.1,1.1,0.1c2.9,0.3,5.9,0.5,8.7,0.7h0.1
	c5.9,0.4,11.7,0.6,17.3,0.6c16.8-0.1,35.8-1.9,54.8-4.7c1.4-0.2,2.8-0.4,4.2-0.6c2.9-0.4,5.8-0.9,8.7-1.4c12.5-2,24.8-4.3,36.1-6.7
	c5.4-1.1,10.6-2.2,15.5-3.3c0.5-0.1,1-0.2,1.5-0.3C453.8,534.7,471.2,529.9,471.2,529.9z"/>
<path class="st8" d="M393.2,98.9l-14.9-81.4h-127l-14.9,81.4c0,0,27.1,13.6,78.4,13.6C371.9,112.5,393.2,98.9,393.2,98.9z"/>
<g class="st9">
	<g>
		<g>
			<defs>
				<path id="SVGID_00000003090159460601560070000011198622620455151530_" d="M265.2,135.9l0.2-1c1.4-8.4,9.4-14.1,17.8-12.7
					c8.4,1.4,14.1,9.4,12.7,17.8l-0.2,1L265.2,135.9z"/>
			</defs>
			<clipPath id="SVGID_00000119812035907609059150000015755216356537098634_">
				<use xlink:href="#SVGID_00000003090159460601560070000011198622620455151530_"  style="overflow:visible;"/>
			</clipPath>
			<g style="clip-path:url(#SVGID_00000119812035907609059150000015755216356537098634_);">
				
					<image style="overflow:visible;" width="40.9" height="67.2" xlink:href="B1013ECD.png"  transform="matrix(1 0 0 1 265.2133 73.7671)"/>
			</g>
		</g>
		
			<image style="overflow:visible;" width="93.1" height="379.9" xlink:href="B1013ECF.png"  transform="matrix(1 0 0 1 202.8563 134.9221)"/>
		<g>
			<defs>
				<path id="SVGID_00000041294365172081148310000011884130145731683513_" d="M233.6,513.8l-0.2,1c-1.4,8.4-9.4,14.1-17.8,12.7
					c-8.4-1.4-14.1-9.4-12.7-17.8l0.2-1L233.6,513.8z"/>
			</defs>
			<clipPath id="SVGID_00000083085712005785669310000012330629829225699262_">
				<use xlink:href="#SVGID_00000041294365172081148310000011884130145731683513_"  style="overflow:visible;"/>
			</clipPath>
			<g style="clip-path:url(#SVGID_00000083085712005785669310000012330629829225699262_);">
				
					<image style="overflow:visible;" width="40.9" height="67.2" xlink:href="B1013ECA.png"  transform="matrix(1 0 0 1 192.6548 508.7364)"/>
			</g>
		</g>
	</g>
</g>
</svg>
