<?xml version="1.0" encoding="UTF-8" standalone="no"?><!DOCTYPE svg PUBLIC "-//W3C//DTD SVG 1.1//EN" "http://www.w3.org/Graphics/SVG/1.1/DTD/svg11.dtd"><svg width="100%" height="100%" viewBox="0 0 1024 768" version="1.1" xmlns="http://www.w3.org/2000/svg" xmlns:xlink="http://www.w3.org/1999/xlink" xml:space="preserve" xmlns:serif="http://www.serif.com/" style="fill-rule:evenodd;clip-rule:evenodd;stroke-linecap:round;stroke-linejoin:round;stroke-miterlimit:1.5;"><g id="Layer1"></g><g><path d="M521.419,212.544c47.172,-19.92 135.643,-34.851 182.476,37.61c39.843,61.646 28.6,117.341 -0.657,192.143c-19.44,49.699 -47.297,150.964 -106.028,158.287c-47.919,5.975 -69.071,-11.564 -89.616,-14.746c-21.519,4.982 -19.405,20.054 -85.37,17.118c-59.736,-2.66 -82.017,-107.522 -100.577,-158.721c-29.352,-80.969 -25.435,-157.037 16.996,-203.79c58.573,-64.541 109.897,-50.732 182.776,-27.901Z" style="fill:url(#_Linear1);stroke:#000;stroke-width:0.5px;"/><path d="M516.592,207.665c-0.854,0.215 -2.631,-5.586 -2.974,-6.443c-2.74,-6.851 -3.933,-14.059 -4.742,-21.34c-1.874,-16.869 1.544,-34.428 8.002,-49.498c2.207,-5.148 5.976,-16.325 10.078,-18.376c1.852,-0.926 9.867,1.115 11.855,1.778c2.199,0.733 5.41,-0.111 7.41,0.889c2.812,1.406 -3.609,7.325 -4.149,9.485c-2.762,11.049 -13.135,19.733 -15.413,31.121c-2.57,12.85 -8.697,30.12 -5.335,43.57c0.783,3.13 1.286,7.611 2.668,10.374c0.478,0.956 2.515,3.267 1.778,4.742c-0.233,0.466 -6.917,0.789 -7.41,0.296c-2.694,-2.694 -0.782,-9.674 -3.556,-12.448" style="fill:url(#_Linear2);"/><path d="M516.555,207.696c0.079,0.913 0.148,1.833 0.269,2.702c0.218,1.566 0.606,2.97 1.519,3.883c0.028,0.028 0.075,0.054 0.139,0.078c0.131,0.047 0.336,0.085 0.595,0.112c0.72,0.077 1.864,0.08 3.005,0.032c1.375,-0.058 2.744,-0.189 3.362,-0.354c0.131,-0.035 0.229,-0.072 0.287,-0.109c0.031,-0.02 0.051,-0.041 0.061,-0.062c0.231,-0.46 0.195,-1.001 0.019,-1.557c-0.389,-1.234 -1.466,-2.545 -1.797,-3.208c-0.435,-0.869 -0.782,-1.909 -1.079,-3.023c-0.646,-2.425 -1.051,-5.202 -1.587,-7.345c-1.356,-5.424 -1.167,-11.47 -0.291,-17.596c1.295,-9.061 4.094,-18.298 5.627,-25.963c0.459,-2.294 1.246,-4.478 2.234,-6.594c1.938,-4.152 4.647,-8.042 7.155,-11.981c2.559,-4.019 4.909,-8.09 6.023,-12.545c0.175,-0.702 0.975,-1.802 1.874,-3.014c1.129,-1.522 2.415,-3.22 2.84,-4.535c0.283,-0.875 0.185,-1.583 -0.578,-1.964c-0.432,-0.216 -0.92,-0.347 -1.443,-0.426c-0.934,-0.141 -1.978,-0.117 -3.003,-0.124c-1.056,-0.008 -2.092,-0.049 -2.967,-0.341c-1.14,-0.38 -4.261,-1.213 -7.066,-1.681c-1.257,-0.209 -2.451,-0.345 -3.375,-0.335c-0.617,0.007 -1.115,0.08 -1.433,0.239c-1.423,0.712 -2.808,2.518 -4.1,4.792c-2.435,4.286 -4.547,10.231 -5.989,13.597c-3.253,7.589 -5.735,15.81 -7.158,24.256c-1.404,8.329 -1.778,16.877 -0.847,25.254c0.405,3.643 0.906,7.268 1.648,10.839c0.742,3.568 1.726,7.083 3.096,10.508c0.215,0.538 0.995,3.023 1.758,4.747c0.298,0.675 0.594,1.233 0.853,1.514c0.072,0.079 0.142,0.136 0.207,0.169c0.05,0.025 0.097,0.037 0.142,0.035Zm0.049,-0.009c0.079,0.914 0.148,1.835 0.269,2.705c0.217,1.554 0.599,2.947 1.505,3.854c0.034,0.034 0.099,0.062 0.191,0.088c0.127,0.036 0.302,0.065 0.514,0.088c0.718,0.076 1.859,0.079 2.997,0.031c1.37,-0.057 2.736,-0.187 3.351,-0.352c0.104,-0.028 0.186,-0.056 0.242,-0.085c0.039,-0.02 0.065,-0.04 0.075,-0.06c0.225,-0.45 0.187,-0.977 0.016,-1.521c-0.388,-1.231 -1.464,-2.539 -1.794,-3.199c-0.436,-0.873 -0.785,-1.916 -1.083,-3.034c-0.646,-2.425 -1.051,-5.202 -1.587,-7.345c-1.357,-5.43 -1.169,-11.482 -0.292,-17.615c1.295,-9.062 4.094,-18.3 5.627,-25.966c0.46,-2.298 1.248,-4.486 2.238,-6.605c1.939,-4.154 4.649,-8.045 7.158,-11.987c2.556,-4.014 4.904,-8.08 6.017,-12.53c0.127,-0.508 0.577,-1.224 1.157,-2.039c0.984,-1.384 2.342,-3.058 3.11,-4.496c0.303,-0.567 0.514,-1.096 0.573,-1.556c0.078,-0.599 -0.103,-1.078 -0.678,-1.366c-0.428,-0.213 -0.911,-0.342 -1.428,-0.421c-0.932,-0.141 -1.974,-0.116 -2.997,-0.124c-1.061,-0.007 -2.102,-0.049 -2.981,-0.342c-1.139,-0.38 -4.257,-1.212 -7.06,-1.68c-1.253,-0.208 -2.443,-0.344 -3.365,-0.334c-0.608,0.007 -1.099,0.077 -1.412,0.234c-1.417,0.708 -2.792,2.508 -4.079,4.771c-2.434,4.285 -4.545,10.228 -5.987,13.593c-3.251,7.585 -5.731,15.802 -7.154,24.244c-1.403,8.324 -1.777,16.868 -0.847,25.241c0.405,3.641 0.906,7.264 1.648,10.834c0.741,3.565 1.724,7.077 3.093,10.5c0.215,0.537 0.995,3.022 1.757,4.745c0.296,0.668 0.588,1.222 0.844,1.501c0.068,0.073 0.132,0.127 0.194,0.158c0.04,0.02 0.078,0.031 0.115,0.029c-0.107,-1.234 -0.235,-2.456 -0.536,-3.523c-0.254,-0.902 -0.632,-1.694 -1.229,-2.291c-0.01,-0.009 -0.01,-0.025 0,-0.035c0.01,-0.01 0.026,-0.01 0.035,0c0.602,0.602 0.985,1.402 1.242,2.312c0.302,1.071 0.43,2.295 0.537,3.533c0.008,0.003 0.014,0.009 0.016,0.017c0.003,0.012 -0.002,0.023 -0.012,0.028Z"/><path d="M525.495,216.169c-0,-0 -20.814,-3.923 -26.275,-6.195c-27.411,-11.405 -47.951,-18.131 -91.343,-9.39c-58.676,11.819 -128.855,92.255 -106.183,167.991c3.822,12.767 9.63,25.449 7.201,42.616c-2.921,20.648 10.485,42.056 15.995,41.323c9.617,-1.28 14.347,-19.066 10.534,-28.341c-2.817,-6.856 -1.216,-14.696 7.263,-12.678c4.467,1.062 3.869,-5.21 7.033,25.843c2.222,21.81 -4.473,36.975 -2.51,46.532c2.55,12.419 7.487,20.716 11.717,21.166c10.309,1.096 7.049,-8.655 11.405,-13.616c3.13,-3.564 2.222,13.986 3.078,19.776c0.767,5.189 2.223,10.361 6.116,9.104c4.543,-1.466 5.81,-8.266 4.257,-11.674c-4.725,-10.371 1.923,-8.945 2.632,-8.704c5.257,1.788 7.391,46.715 2.523,63.937c-4.237,14.988 2.512,32.842 19.628,30.485c12.396,-1.707 19.395,-11.086 15.11,-27.161c-6.967,-26.143 0.828,-55.074 8.716,-62.227c7.874,-7.142 -2.508,16.993 12.907,17.243c14.623,0.237 -7.261,54.924 20.172,60.027c12.808,2.383 21.751,-40.342 18.856,-66.828c-1.943,-17.776 0.428,-26.349 6.142,-24.675c4.223,1.237 2.745,12.861 2.661,20.339c-0.094,8.295 2.803,13.898 5.463,6.918c7.592,-19.918 10.759,6.205 7.304,14.223c-7.107,16.49 -5.781,31.311 1.087,34.278c23.768,10.267 4.475,-58.883 20.763,-60.169c13.952,-1.1 0.603,28.03 22.11,29.223c20.122,1.116 13.163,-34.154 22.738,-34.988c13.363,-1.165 -16.889,75.858 22.25,85.047c15.476,3.634 27.075,-22.047 20.123,-58.573c-2.841,-14.921 4.464,-43.188 6.979,-49.007c6.229,-14.415 17.003,-21.839 20.963,-19.256c12.301,8.026 -1.666,40.957 12.197,43.292c8.548,1.44 15.562,-12.896 8.406,-30.495c-4.561,-11.215 3.162,-22.601 5.034,-20.774c7.504,7.323 -7.758,22.815 9.786,22.733c13.679,-0.065 8.344,-19.218 6.04,-33.087c-1.533,-9.223 6.366,-18.258 7.621,-19.103c3.979,-2.682 11.498,2.481 10.802,8.446c-1.374,11.78 -14.806,37.045 -2.266,36.669c6.389,-0.191 12.995,-11.225 13.176,-21.116c0.128,-7.033 -2.135,-18.421 1.362,-25.371c1.53,-3.042 1.111,2.532 5.838,1.965c10.108,-1.213 1.77,-16.381 1.736,-20.956c-0.04,-5.435 1.163,-10.235 2.051,-13.712c1.43,-5.596 8.489,-21.068 5.099,-80.231c-2.588,-45.153 -38.19,-81.011 -67.214,-92.587c-38.363,-15.3 -60.035,-21.883 -137.083,1.738Zm-111.409,314.285c-2.321,-1.394 -4.564,6.436 -4.26,10.837c0.449,6.511 5.225,10.817 5.337,6.197c0.163,-6.678 1.614,-15.417 -1.077,-17.034Zm86.368,-181.831c-6.988,-0.052 -10.319,23.498 -10.344,24.208c-0.33,9.115 -8.406,12.48 -11.37,20.873c-3.847,10.897 -13.599,38.2 -9.893,40.049c6.274,3.129 12.492,-10.673 13.495,-4.877c1.148,6.643 -0.277,29.971 10.424,31.343c9.427,1.208 9.949,-13.967 18.13,-18.207c6.495,-3.366 11.842,10.593 18.111,6.49c3.519,-2.303 1.996,-13.883 1.963,-16.097c-0.273,-18.721 -6.873,-36.224 -13.589,-53.374c-2.326,-5.94 -4.777,-9.83 -7.55,-15.505c-1.298,-2.655 -5.11,-14.871 -9.377,-14.903Zm-119.651,-30.086c11.374,-12.66 33.418,-32.527 47.156,-33.231c13.739,-0.704 32.056,14.085 35.275,29.007c3.454,16.005 -0.153,63.264 -14.555,67.024c-10.173,2.656 -25.249,29.477 -46.53,25.739c-18.06,-3.172 -32.719,-75.88 -21.346,-88.539Zm242.258,-3.994c-10.972,-12.643 -32.379,-35.316 -45.491,-33.188c-15.656,2.542 -32.464,16.147 -34.03,28.97c-1.981,16.226 0.149,63.182 14.042,66.937c9.814,2.653 24.357,29.44 44.887,25.706c17.422,-3.168 31.563,-75.781 20.592,-88.425Z" style="fill:#00c000;"/><path d="M406.126,593.691c12.524,-1.72 18.937,-13.972 14.609,-30.167c-7.039,-26.338 0.836,-55.485 8.804,-62.692c7.955,-7.195 -2.533,17.12 13.04,17.372c14.772,0.239 -7.221,58.144 20.493,63.286c12.939,2.4 21.859,-43.454 18.935,-70.137c-1.963,-17.909 0.432,-26.546 6.205,-24.86c4.266,1.246 2.773,12.957 2.688,20.491c-0.095,8.357 2.831,14.001 5.519,6.97c7.67,-20.067 10.869,6.251 7.379,14.329c-7.18,16.613 -5.175,33.651 1.763,36.639c24.011,10.344 3.856,-61.428 20.31,-62.723c14.096,-1.109 0.61,28.239 22.337,29.441c20.328,1.124 13.298,-34.409 22.972,-35.25c13.5,-1.173 -17.063,76.425 22.478,85.683c15.634,3.66 27.352,-22.213 20.328,-59.011c-2.869,-15.033 4.51,-43.511 7.051,-49.373c6.293,-14.522 17.178,-22.002 21.178,-19.399c12.427,8.085 -1.683,41.263 12.322,43.615c8.636,1.451 15.721,-12.993 8.492,-30.723c-4.607,-11.299 3.195,-22.77 5.086,-20.93c7.581,7.379 -7.838,22.987 9.886,22.903c13.819,-0.065 8.43,-19.36 6.102,-33.333c-1.548,-9.292 6.431,-18.394 7.699,-19.246c4.02,-2.702 11.616,2.499 10.913,8.509c-1.389,11.868 -14.958,37.321 -2.29,36.943c6.456,-0.193 13.128,-11.309 13.311,-21.274c0.13,-7.086 -2.156,-18.558 1.377,-25.56c1.546,-3.065 1.122,2.55 5.897,1.979c10.212,-1.222 1.789,-16.502 1.754,-21.112c-0.04,-5.475 1.175,-10.312 2.072,-13.815c1.445,-5.637 8.576,-21.224 5.151,-80.829c-2.614,-45.491 -38.58,-81.616 -67.903,-93.279c-38.756,-15.414 -60.859,-24.99 -138.487,1.751c-0,0 -21.028,-3.952 -26.545,-6.241c-27.691,-11.49 -48.442,-18.267 -92.279,-9.46c-59.277,11.908 -130.175,92.944 -107.271,169.246c3.861,12.862 9.729,25.638 7.275,42.934c-2.952,20.802 12.328,46.736 17.895,45.998c9.716,-1.289 12.758,-23.575 8.906,-32.92c-2.846,-6.906 -1.228,-14.805 7.337,-12.773c4.513,1.071 3.908,-5.248 7.105,26.036c2.245,21.973 -4.518,37.252 -2.536,46.88c2.577,12.512 8.353,22.813 12.626,23.266c10.415,1.104 6.333,-10.662 10.734,-15.66c3.162,-3.591 2.245,14.09 3.109,19.924c0.775,5.228 3.274,14.781 7.207,13.514c4.59,-1.477 4.841,-12.67 3.272,-16.104c-4.773,-10.448 1.943,-9.011 2.659,-8.768c5.311,1.801 7.467,47.064 2.549,64.414c-4.28,15.1 3.195,35.89 20.486,33.516Zm4.92,-67.17c-2.345,-1.405 -4.61,6.484 -4.304,10.918c0.454,6.559 5.279,10.898 5.392,6.243c0.164,-6.728 1.631,-15.532 -1.088,-17.161Zm87.253,-183.188c-7.059,-0.053 -10.424,23.673 -10.45,24.388c-0.334,9.183 -8.492,12.573 -11.486,21.028c-3.887,10.979 -13.739,38.486 -9.995,40.349c6.338,3.152 12.621,-10.753 13.633,-4.913c1.16,6.692 -0.279,30.194 10.531,31.576c9.524,1.217 10.051,-14.071 18.316,-18.342c6.562,-3.392 11.964,10.672 18.297,6.538c3.555,-2.321 2.016,-13.987 1.983,-16.217c-0.276,-18.861 -6.943,-36.495 -13.728,-53.772c-2.351,-5.985 -4.826,-9.904 -7.628,-15.622c-1.311,-2.674 -5.162,-14.981 -9.473,-15.013Zm-120.877,-30.312c11.49,-12.754 33.76,-32.769 47.64,-33.479c13.879,-0.709 32.383,14.19 35.636,29.224c3.489,16.125 -0.155,63.736 -14.705,67.524c-10.277,2.676 -25.507,29.698 -47.007,25.932c-18.244,-3.196 -33.054,-76.446 -21.564,-89.201Zm244.74,-4.023c-11.084,-12.738 -32.71,-35.58 -45.957,-33.436c-15.816,2.561 -32.796,16.268 -34.378,29.187c-2.002,16.346 0.15,63.653 14.185,67.436c9.915,2.673 24.607,29.659 45.348,25.898c17.6,-3.192 31.886,-76.347 20.802,-89.085Z" style="fill:url(#_Radial3);"/><g><path d="M337.821,250.14c-11.455,11.595 -34.713,69.338 -15.693,75.382c5.208,1.655 21.717,-20.717 30.562,-52.513c4.553,-16.369 40.572,-21.961 51.372,-36.651c3.42,-4.651 -12.514,-13.804 -17.433,-13.2c-10.48,1.288 -34.315,12.312 -48.808,26.982Z" style="fill:#fff;"/></g><ellipse cx="319.523" cy="329.366" rx="10.738" ry="11.786" style="fill:url(#_Radial4);"/></g><defs><linearGradient id="_Linear1" x1="0" y1="0" x2="1" y2="0" gradientUnits="userSpaceOnUse" gradientTransform="matrix(150.792,261.474,-261.474,150.792,418.119,316.626)"><stop offset="0" style="stop-color:#df1c01;stop-opacity:1"/><stop offset="0.61" style="stop-color:#c61d06;stop-opacity:1"/><stop offset="0.82" style="stop-color:#891e13;stop-opacity:1"/><stop offset="1" style="stop-color:#472020;stop-opacity:1"/></linearGradient><linearGradient id="_Linear2" x1="0" y1="0" x2="1" y2="0" gradientUnits="userSpaceOnUse" gradientTransform="matrix(12.4525,-80.7908,80.7908,12.4525,518.081,202.362)"><stop offset="0" style="stop-color:#574142;stop-opacity:1"/><stop offset="0.43" style="stop-color:#81563d;stop-opacity:1"/><stop offset="1" style="stop-color:#8c5b3c;stop-opacity:1"/></linearGradient><radialGradient id="_Radial3" cx="0" cy="0" r="1" gradientUnits="userSpaceOnUse" gradientTransform="matrix(176.063,317.108,-316.474,176.415,413.305,228.903)"><stop offset="0" style="stop-color:#b9ee1f;stop-opacity:1"/><stop offset="1" style="stop-color:#21e800;stop-opacity:1"/></radialGradient><radialGradient id="_Radial4" cx="0" cy="0" r="1" gradientUnits="userSpaceOnUse" gradientTransform="matrix(3.3959,-21.8517,21.8517,3.3959,318.016,341.023)"><stop offset="0" style="stop-color:#fff;stop-opacity:1"/><stop offset="1" style="stop-color:#fff;stop-opacity:0"/></radialGradient></defs></svg>